<?xml version="1.0" encoding="UTF-8"?>
<svg version="1.1" xmlns="http://www.w3.org/2000/svg" width="500" height="500">
<path d="M0 0 C0.33 0.33 0.66 0.66 1 1 C0.71269945 3.33944736 0.38063221 5.6739143 0 8 C0.721875 8.04125 1.44375 8.0825 2.1875 8.125 C6.2685215 9.39465113 7.48531026 11.57722785 10 15 C12.33820463 19.67640925 11.68686612 25.80780578 10.1640625 30.66796875 C2.5662262 47.11295001 -15.71243932 56.38222607 -31.94140625 62.546875 C-39.48931026 65.25118885 -47.04630233 67.00763921 -55 68 C-55 68.99 -55 69.98 -55 71 C-55 73.33333333 -55 75.66666667 -55 78 C-53.88625 78.5775 -52.7725 79.155 -51.625 79.75 C-48.60834373 81.46166412 -47.22096563 82.67009373 -46 86 C-45.34 86.66 -44.68 87.32 -44 88 C-40.84120782 95.4705435 -38.58292069 103.86695354 -39 112 C-41.3431213 111.74438677 -43.67843403 111.40729228 -46 111 C-46.33 110.34 -46.66 109.68 -47 109 C-50.71599191 108.79913557 -51.77208445 108.8480563 -55 111 C-55.99 111 -56.98 111 -58 111 C-58 112.32 -58 113.64 -58 115 C-62.75 115.125 -62.75 115.125 -65 114 C-67.22374886 114.55241307 -67.22374886 114.55241307 -69.6875 115.4375 C-73.94924737 116.77198655 -77.497278 117.54032664 -82 117 C-84.30164703 115.61561452 -85.70148266 114.65335871 -86.828125 112.1875 C-88.56015813 103.20658746 -88.16826874 94.10520851 -88 85 C-84.12259277 82.87936525 -81.03923498 81.61075912 -76.625 81.3125 C-75.75101562 81.24675781 -74.87703125 81.18101562 -73.9765625 81.11328125 C-73.32429688 81.07589844 -72.67203125 81.03851563 -72 81 C-71.40267181 78.23735711 -71 75.83967231 -71 73 C-73.90478457 70.15569628 -76.38671929 69.52681041 -80.359375 69.0859375 C-81.39320313 68.96476562 -82.42703125 68.84359375 -83.4921875 68.71875 C-85.10480469 68.54859375 -85.10480469 68.54859375 -86.75 68.375 C-87.80960937 68.25382812 -88.86921875 68.13265625 -89.9609375 68.0078125 C-92.03167226 67.77145072 -94.10337871 67.54342652 -96.17602539 67.32446289 C-98.60979894 67.04483247 -101.00223913 66.66915354 -103.41796875 66.26953125 C-107.35066712 65.97361392 -109.11868149 66.49050958 -112.5625 68.3125 C-123.32186735 73.64772348 -131.3200804 74.12804495 -142.6328125 70.37890625 C-158.20717954 64.0010042 -170.19276821 51.19796402 -177 36 C-177.7109375 32.58203125 -177.7109375 32.58203125 -178 30 C-173.19155432 30 -172.59836779 30.82010436 -169.1875 34 C-168.30449219 34.82242188 -167.42148438 35.64484375 -166.51171875 36.4921875 C-164.37138865 38.62918893 -162.42297723 40.79550265 -160.5 43.125 C-156.14522788 48.29888402 -150.45664204 52.84778599 -144 55 C-142.43881572 55.06740865 -140.8749748 55.08514456 -139.3125 55.0625 C-138.50425781 55.05347656 -137.69601563 55.04445313 -136.86328125 55.03515625 C-136.24839844 55.02355469 -135.63351563 55.01195312 -135 55 C-138.42882665 45.11691141 -145.89296243 40.1380028 -154.1328125 34.11328125 C-161.82148377 28.44629057 -161.82148377 28.44629057 -162.875 25.8125 C-162.91625 25.214375 -162.9575 24.61625 -163 24 C-162.67 23.67 -162.34 23.34 -162 23 C-152.45036324 23.18018183 -144.65350714 28.26401329 -136.8125 33.3125 C-132.13875855 36.21370418 -128.46621859 36.82367037 -123 37 C-122.41338532 33.75393319 -122.41338532 33.75393319 -123 30 C-127.55245766 24.16526676 -134.85053837 21.4620648 -141.4375 18.625 C-142.96407227 17.95017578 -142.96407227 17.95017578 -144.52148438 17.26171875 C-147.00979126 16.16359271 -149.50238731 15.07675 -152 14 C-152 12.68 -152 11.36 -152 10 C-142.98054929 5.85503184 -133.17606634 7.62090667 -124.078125 10.73046875 C-116.98362765 13.65649875 -110.5725536 17.72073869 -105 23 C-105 23.66 -105 24.32 -105 25 C-104.319375 24.505 -103.63875 24.01 -102.9375 23.5 C-99.22309567 21.6032829 -97.14045705 21.50875933 -93 22 C-90.20806075 23.13147012 -87.60217482 24.48600738 -85 26 C-84.608125 25.2575 -84.21625 24.515 -83.8125 23.75 C-79.1697701 16.70585809 -72.37381866 15.03381168 -64.5625 13.1875 C-60.47441677 11.82480559 -57.29189696 9.82096625 -53.72265625 7.4375 C-47.52284194 4.16414037 -41.40392127 3.7996034 -34.5625 3.6875 C-28.4388049 3.47496394 -23.98688208 2.80059387 -18.859375 -0.84375 C-12.98326754 -4.49780002 -5.44410981 -4.00302192 0 0 Z M-15 0 C-15 0.33 -15 0.66 -15 1 C-13.35 1 -11.7 1 -10 1 C-10 0.67 -10 0.34 -10 0 C-11.65 0 -13.3 0 -15 0 Z M-16 4 C-15.67 4.66 -15.34 5.32 -15 6 C-13.35 5.34 -11.7 4.68 -10 4 C-13 2.66666667 -13 2.66666667 -16 4 Z M-99 30 C-98.93595446 32.00287872 -98.79920681 34.00368415 -98.625 36 C-98.53476563 37.093125 -98.44453125 38.18625 -98.3515625 39.3125 C-98.28885069 41.91428772 -98.28885069 41.91428772 -97 43 C-92.21740783 43.68322745 -89.75937499 41.79767441 -86 39 C-86.47272773 34.74545047 -88.96437376 32.80795427 -92 30 C-92.33 29.67 -92.66 29.34 -93 29 C-96.28894893 28.59371033 -96.28894893 28.59371033 -99 30 Z M-83 89 C-82.34 92.96 -81.68 96.92 -81 101 C-78.22003893 101 -75.57507433 100.78702071 -72.8125 100.5 C-71.91144531 100.4071875 -71.01039063 100.314375 -70.08203125 100.21875 C-69.39496094 100.1465625 -68.70789063 100.074375 -68 100 C-68.5 102.3125 -68.5 102.3125 -70 105 C-72.5690412 106.34219295 -75.21813439 107.20425705 -78 108 C-75.03878992 108.85380428 -72.3912356 109.13517764 -69.3125 109.125 C-68.52488281 109.12757813 -67.73726562 109.13015625 -66.92578125 109.1328125 C-64.99235086 109.21127778 -64.99235086 109.21127778 -64 108 C-63.84379445 106.58672053 -63.74943827 105.1664541 -63.68359375 103.74609375 C-63.64169922 102.89208984 -63.59980469 102.03808594 -63.55664062 101.15820312 C-63.51732422 100.26037109 -63.47800781 99.36253906 -63.4375 98.4375 C-63.39431641 97.53580078 -63.35113281 96.63410156 -63.30664062 95.70507812 C-63.20021858 93.47021515 -63.09820012 91.23523692 -63 89 C-64.918125 89.0309375 -64.918125 89.0309375 -66.875 89.0625 C-70.75 89.125 -70.75 89.125 -73 88 C-74.91500303 87.84101146 -74.91500303 87.84101146 -77 87.875 C-77.70125 87.87242187 -78.4025 87.86984375 -79.125 87.8671875 C-81.09153775 87.88622764 -81.09153775 87.88622764 -83 89 Z M-55 88 C-57.02558881 91.34939881 -57.21738987 93.86962551 -57.125 97.75 C-57.10695313 98.73484375 -57.08890625 99.7196875 -57.0703125 100.734375 C-57.04710937 101.48203125 -57.02390625 102.2296875 -57 103 C-56.01 102.01 -55.02 101.02 -54 100 C-53.34 100.33 -52.68 100.66 -52 101 C-51.34 100.67 -50.68 100.34 -50 100 C-50.54339792 95.43545749 -51.79463821 92.0271824 -54 88 C-54.33 88 -54.66 88 -55 88 Z " fill="#8D828F" transform="translate(321,246)"/>
<path d="M0 0 C1.8125 2.6875 1.8125 2.6875 3 5 C3.804375 4.236875 4.60875 3.47375 5.4375 2.6875 C12.32853353 -2.94044386 19.94303643 -3.56800229 28.6328125 -3.34375 C38.04382022 -2.38299747 44.94997614 3.06916071 50.83203125 10.23046875 C52.26548088 12.12718782 53.65562264 14.03944968 55 16 C55.09796875 15.39671875 55.1959375 14.7934375 55.296875 14.171875 C55.98473984 10.49535605 56.57650203 7.62740439 58.6875 4.5 C61.82418568 2.46539307 64.2849167 2.13268155 68 2 C71.11599816 2.77899954 71.83763242 3.75644863 73.625 6.4375 C75.19410741 10.50291466 75.90956647 14.41218208 76.5703125 18.70703125 C76.76848065 20.95673692 76.76848065 20.95673692 78 22 C78.495 20.865625 78.99 19.73125 79.5 18.5625 C83.53670437 10.60200607 89.19795814 4.44515039 97.421875 0.8125 C103.31216091 -1.04383253 108.65680552 -0.889821 114.3125 1.625 C119.02487559 4.30552134 122.26285893 7.78857679 124 13 C124.88197494 21.66070472 124.88197494 21.66070472 122.3125 25.5625 C119.68639646 27.19494274 118.10211915 27.92433856 115 28 C112.25 26.8125 112.25 26.8125 110 25 C109.1875 22.8125 109.1875 22.8125 109 21 C105.66385983 21.72525221 105.66385983 21.72525221 104.3125 25.25 C101.46711125 33.57650603 102.40878771 42.74051082 105 51 C105.721875 50.2575 106.44375 49.515 107.1875 48.75 C114.07153008 42.01894837 114.07153008 42.01894837 118.0625 41.9375 C121.84909499 43.30711946 123.10607542 44.43942179 125 48 C125 55.14691385 122.82894449 60.95592665 117.9453125 66.2109375 C113.23650588 70.60265276 109.37264314 73.9630064 102.69140625 74.01953125 C95.29060005 73.60274308 89.79342874 71.47599366 84.25 66.5625 C82.08566412 64.09756192 80.02329772 61.58144881 78 59 C77.34 58.34 76.68 57.68 76 57 C75.82984375 57.81984375 75.6596875 58.6396875 75.484375 59.484375 C75.12085938 61.10085937 75.12085938 61.10085937 74.75 62.75 C74.51796875 63.81734375 74.2859375 64.8846875 74.046875 65.984375 C72.88295802 69.33715079 71.80294331 70.85175878 69 73 C65.23290347 74.00063502 61.97490567 73.56441907 58.625 71.625 C53.93719763 64.05239617 54.75783817 54.58329139 55 46 C52.42722715 48.50594758 50.11503069 51.07214753 47.875 53.875 C41.96599482 60.65707019 34.76873277 64.3761606 26 66 C26.05220703 66.99580078 26.05220703 66.99580078 26.10546875 68.01171875 C26.37711069 76.87242026 26.37711069 76.87242026 23 81 C22.608125 81.5775 22.21625 82.155 21.8125 82.75 C18.80810713 84.82199508 15.55619135 85.10776337 12 85 C8.39244516 83.7747927 6.55779326 82.66935191 4.125 79.75 C2.73747116 76.35826284 2.78645971 73.63018496 3 70 C2.34 70 1.68 70 1 70 C1 70.66 1 71.32 1 72 C-2.15951813 74.10634542 -3.4199887 74.34654714 -7.09375 74.66796875 C-8.62672729 74.80211182 -8.62672729 74.80211182 -10.19067383 74.93896484 C-11.82879028 75.06198975 -11.82879028 75.06198975 -13.5 75.1875 C-14.61463623 75.27209473 -15.72927246 75.35668945 -16.87768555 75.44384766 C-23.87199271 75.91883456 -30.80620315 76.156503 -37.8125 75.875 C-38.58722656 75.85332764 -39.36195313 75.83165527 -40.16015625 75.80932617 C-43.57767707 75.60533521 -45.6839765 75.23028842 -48.4765625 73.1953125 C-50.53644214 70.22697312 -50.64660993 68.41672663 -50.4375 64.89453125 C-50 63 -50 63 -48.0625 60.6875 C-37.2016243 54.70293584 -25.17809676 53.82795811 -13 53.75 C-12.07928711 53.74073486 -11.15857422 53.73146973 -10.20996094 53.72192383 C-9.33629883 53.72603271 -8.46263672 53.7301416 -7.5625 53.734375 C-6.78003906 53.73663086 -5.99757812 53.73888672 -5.19140625 53.74121094 C-2.75549384 54.02887439 -1.11511009 54.78706386 1 56 C2.06086125 48.43083919 2.15356151 40.92668184 2.13037109 33.29614258 C2.12496707 31.17457073 2.13036749 29.05320642 2.13671875 26.93164062 C2.13605865 25.5729162 2.13477889 24.21419191 2.1328125 22.85546875 C2.13112061 21.02471802 2.13112061 21.02471802 2.12939453 19.15698242 C2.02311747 16.56402267 1.76955761 14.45960394 1 12 C0.61328125 12.46277344 0.2265625 12.92554688 -0.171875 13.40234375 C-8.45509313 20.64131002 -26.58992462 20.13181107 -37.1875 20.375 C-38.39792969 20.40335938 -39.60835937 20.43171875 -40.85546875 20.4609375 C-44.62197355 19.90882872 -45.75152008 19.01769673 -48 16 C-49.01650791 12.27280434 -49.34141944 9.97873571 -48.0625 6.3125 C-43.0966446 0.74472274 -36.00363251 -0.75799914 -28.875 -1.75 C-28.05112793 -1.87068848 -27.22725586 -1.99137695 -26.37841797 -2.11572266 C-6.55424941 -4.8324676 -6.55424941 -4.8324676 0 0 Z M9 5 C9.33 5.66 9.66 6.32 10 7 C10.33 6.34 10.66 5.68 11 5 C10.34 5 9.68 5 9 5 Z M8 7 C7.67 8.98 7.34 10.96 7 13 C7.66 12.34 8.32 11.68 9 11 C8.6814823 8.89179203 8.6814823 8.89179203 8 7 Z M24 18 C24.33 25.59 24.66 33.18 25 41 C25.99 41.33 26.98 41.66 28 42 C32.208043 38.00775407 34.11366241 35.5072871 34.375 29.6875 C34.33586711 26.26057682 33.91942934 24.22777999 31.8125 21.5 C28.97981145 18.55839675 28.97981145 18.55839675 24 18 Z M98 30 C98 31.65 98 33.3 98 35 C98.33 35 98.66 35 99 35 C99 33.35 99 31.7 99 30 C98.67 30 98.34 30 98 30 Z M120 50 C121 54 121 54 121 54 Z M7 70 C7.66 71.32 8.32 72.64 9 74 C9 72.68 9 71.36 9 70 C8.34 70 7.68 70 7 70 Z " fill="#107D8D" transform="translate(210,167)"/>
<path d="M0 0 C2.72705554 -0.22111261 4.46420662 -0.30361625 6.875 1.0625 C8.64782183 4.11569315 7.69235306 6.66411708 7 10 C8.0828125 10.061875 8.0828125 10.061875 9.1875 10.125 C13.2685215 11.39465113 14.48531026 13.57722785 17 17 C19.33820463 21.67640925 18.68686612 27.80780578 17.1640625 32.66796875 C9.8403693 48.51958657 -7.46888123 57.71244547 -23.10546875 63.82275391 C-32.97859631 67.42329644 -41.91779921 69.13139676 -52.40625 69.71875 C-55.8845441 69.87555831 -55.8845441 69.87555831 -58.6875 70.74609375 C-61 71 -61 71 -63.28125 69.62890625 C-68.67872015 64.60203704 -73.94079854 59.66048644 -75.625 52.25 C-75 50 -75 50 -73 47.6875 C-70 46 -70 46 -66.62109375 46.2578125 C-60.16316729 46.38056161 -54.71774179 42.97442309 -49.0625 40.1875 C-47.2068967 39.2958308 -45.34847051 38.41023799 -43.48985291 37.52487183 C-42.22167506 36.92039444 -40.95431354 36.31420152 -39.6877594 35.70632935 C-33.20038917 32.5967323 -26.64504844 29.65304508 -20.0625 26.75 C-19.0216626 26.28489014 -17.9808252 25.81978027 -16.90844727 25.34057617 C-15.45523071 24.70019409 -15.45523071 24.70019409 -13.97265625 24.046875 C-13.12968994 23.67401367 -12.28672363 23.30115234 -11.41821289 22.91699219 C-8.95530592 21.9830519 -6.59283229 21.44066872 -4 21 C-3.9071875 20.13375 -3.9071875 20.13375 -3.8125 19.25 C-2.6775227 16.10698594 -0.62628394 15.00097824 2 13 C4.74681734 10.25318266 4.98769479 9.24610411 5.1875 5.25 C5.125625 4.1775 5.06375 3.105 5 2 C3.35 1.67 1.7 1.34 0 1 C0 0.67 0 0.34 0 0 Z " fill="#8D828F" transform="translate(314,244)"/>
<path d="M0 0 C1.79390244 3.08949865 2.125 5.36646064 2.125 8.9375 C-0.43637407 12.74297005 -3.25143586 15.21982689 -6.875 17.9375 C-7.37 19.4225 -7.37 19.4225 -7.875 20.9375 C-10.65084194 22.30035694 -13.38297975 23.48153599 -16.25 24.625 C-27.57882939 29.29407352 -38.69360941 34.38632824 -49.80999756 39.53671265 C-52.06089499 40.57926428 -54.31357395 41.61788777 -56.56640625 42.65625 C-57.2447905 42.9725386 -57.92317474 43.28882721 -58.62211609 43.61470032 C-62.88980976 45.57904127 -66.17313974 47.00841084 -70.875 46.8125 C-74.26748456 46.95385352 -75.42491149 47.67587983 -77.875 49.9375 C-77.69900249 58.20938305 -72.53379043 63.33956871 -66.9375 69 C-65.9165625 69.9590625 -65.9165625 69.9590625 -64.875 70.9375 C-65.205 71.5975 -65.535 72.2575 -65.875 72.9375 C-72.84267759 70.09881654 -78.557382 62.572736 -81.875 55.9375 C-82.5597676 48.97569604 -82.5597676 48.97569604 -79.9375 45 C-75.72746184 42.16466818 -71.86167366 41.9375 -66.875 41.9375 C-71.06261192 41.69116989 -74.7543803 41.54771924 -78.75 42.9375 C-81.86850507 45.87256359 -82.60753169 48.86825964 -83.875 52.9375 C-85.525 52.6075 -87.175 52.2775 -88.875 51.9375 C-89.205 52.5975 -89.535 53.2575 -89.875 53.9375 C-91.70010997 54.71765621 -93.56106676 55.41545406 -95.4375 56.0625 C-96.95537109 56.59230469 -96.95537109 56.59230469 -98.50390625 57.1328125 C-99.67759766 57.53113281 -99.67759766 57.53113281 -100.875 57.9375 C-102.890625 56.078125 -102.890625 56.078125 -104.875 53.9375 C-104.625 51.6875 -104.625 51.6875 -103.875 49.9375 C-103.215 49.9375 -102.555 49.9375 -101.875 49.9375 C-101.93300781 48.70773437 -101.99101562 47.47796875 -102.05078125 46.2109375 C-102.09770005 44.57816312 -102.14319794 42.94534748 -102.1875 41.3125 C-102.22939453 40.50425781 -102.27128906 39.69601562 -102.31445312 38.86328125 C-102.39991189 34.65871015 -102.23847153 31.78513481 -99.609375 28.38671875 C-96.875 25.9375 -96.875 25.9375 -94.77734375 25.24609375 C-90.46916728 25.52873753 -88.1335919 26.16166245 -84.875 28.9375 C-81.71896994 28.24871837 -81.71896994 28.24871837 -80.5 25.625 C-76.78593644 19.48251026 -71.446678 17.79397056 -64.875 15.9375 C-63.740625 15.669375 -62.60625 15.40125 -61.4375 15.125 C-57.34941677 13.76230559 -54.16689696 11.75846625 -50.59765625 9.375 C-44.39784194 6.10164037 -38.27892127 5.7371034 -31.4375 5.625 C-25.3138049 5.41246394 -20.86188208 4.73809387 -15.734375 1.09375 C-11.48019345 -1.55170743 -4.42270015 -2.50619675 0 0 Z M-11.875 1.9375 C-11.875 2.2675 -11.875 2.5975 -11.875 2.9375 C-10.225 2.9375 -8.575 2.9375 -6.875 2.9375 C-6.875 2.6075 -6.875 2.2775 -6.875 1.9375 C-8.525 1.9375 -10.175 1.9375 -11.875 1.9375 Z M-12.875 5.9375 C-12.545 6.5975 -12.215 7.2575 -11.875 7.9375 C-10.225 7.2775 -8.575 6.6175 -6.875 5.9375 C-9.875 4.60416667 -9.875 4.60416667 -12.875 5.9375 Z M-95.875 31.9375 C-95.81095446 33.94037872 -95.67420681 35.94118415 -95.5 37.9375 C-95.40976563 39.030625 -95.31953125 40.12375 -95.2265625 41.25 C-95.16385069 43.85178772 -95.16385069 43.85178772 -93.875 44.9375 C-89.09240783 45.62072745 -86.63437499 43.73517441 -82.875 40.9375 C-83.34772773 36.68295047 -85.83937376 34.74545427 -88.875 31.9375 C-89.205 31.6075 -89.535 31.2775 -89.875 30.9375 C-93.16394893 30.53121033 -93.16394893 30.53121033 -95.875 31.9375 Z " fill="#0C0F11" transform="translate(317.875,244.0625)"/>
<path d="M0 0 C-0.33 0.66 -0.66 1.32 -1 2 C-0.505 2.99 -0.505 2.99 0 4 C0.04022391 6.3329866 0.04320247 8.66706666 0 11 C1.11375 11.5775 2.2275 12.155 3.375 12.75 C6.39165627 14.46166412 7.77903437 15.67009373 9 19 C9.66 19.66 10.32 20.32 11 21 C14.15879218 28.4705435 16.41707931 36.86695354 16 45 C13.6568787 44.74438677 11.32156597 44.40729228 9 44 C8.67 43.34 8.34 42.68 8 42 C4.28400809 41.79913557 3.22791555 41.8480563 0 44 C-0.99 44 -1.98 44 -3 44 C-3 45.32 -3 46.64 -3 48 C-7.75 48.125 -7.75 48.125 -10 47 C-12.22374886 47.55241307 -12.22374886 47.55241307 -14.6875 48.4375 C-18.94924737 49.77198655 -22.497278 50.54032664 -27 50 C-29.30164703 48.61561452 -30.70148266 47.65335871 -31.828125 45.1875 C-33.56015813 36.20658746 -33.16826874 27.10520851 -33 18 C-29.12259277 15.87936525 -26.03923498 14.61075912 -21.625 14.3125 C-20.75101563 14.24675781 -19.87703125 14.18101562 -18.9765625 14.11328125 C-18.32429687 14.07589844 -17.67203125 14.03851563 -17 14 C-16.87625 13.319375 -16.7525 12.63875 -16.625 11.9375 C-16.41875 10.968125 -16.2125 9.99875 -16 9 C-15.773125 7.783125 -15.54625 6.56625 -15.3125 5.3125 C-14 2 -14 2 -11.375 0.5625 C-7.47177539 -0.08803744 -3.95274843 -0.13630167 0 0 Z M-28 22 C-27.34 25.96 -26.68 29.92 -26 34 C-23.22003893 34 -20.57507433 33.78702071 -17.8125 33.5 C-16.91144531 33.4071875 -16.01039063 33.314375 -15.08203125 33.21875 C-14.39496094 33.1465625 -13.70789063 33.074375 -13 33 C-13.5 35.3125 -13.5 35.3125 -15 38 C-17.5690412 39.34219295 -20.21813439 40.20425705 -23 41 C-20.03878992 41.85380428 -17.3912356 42.13517764 -14.3125 42.125 C-13.52488281 42.12757813 -12.73726562 42.13015625 -11.92578125 42.1328125 C-9.99235086 42.21127778 -9.99235086 42.21127778 -9 41 C-8.84379445 39.58672053 -8.74943827 38.1664541 -8.68359375 36.74609375 C-8.64169922 35.89208984 -8.59980469 35.03808594 -8.55664062 34.15820312 C-8.51732422 33.26037109 -8.47800781 32.36253906 -8.4375 31.4375 C-8.39431641 30.53580078 -8.35113281 29.63410156 -8.30664062 28.70507812 C-8.20021858 26.47021515 -8.09820012 24.23523692 -8 22 C-9.918125 22.0309375 -9.918125 22.0309375 -11.875 22.0625 C-15.75 22.125 -15.75 22.125 -18 21 C-19.91500303 20.84101146 -19.91500303 20.84101146 -22 20.875 C-22.70125 20.87242187 -23.4025 20.86984375 -24.125 20.8671875 C-26.09153775 20.88622764 -26.09153775 20.88622764 -28 22 Z M0 21 C-2.02558881 24.34939881 -2.21738987 26.86962551 -2.125 30.75 C-2.10695313 31.73484375 -2.08890625 32.7196875 -2.0703125 33.734375 C-2.04710937 34.48203125 -2.02390625 35.2296875 -2 36 C-1.01 35.01 -0.02 34.02 1 33 C1.66 33.33 2.32 33.66 3 34 C3.66 33.67 4.32 33.34 5 33 C4.45660208 28.43545749 3.20536179 25.0271824 1 21 C0.67 21 0.34 21 0 21 Z " fill="#177A87" transform="translate(266,313)"/>
<path d="M0 0 C-0.33 0.66 -0.66 1.32 -1 2 C-0.01 2.66 0.98 3.32 2 4 C1.39671875 4.18175781 0.7934375 4.36351562 0.171875 4.55078125 C-4.82975456 6.06477325 -4.82975456 6.06477325 -9.25 8.75 C-11 10 -11 10 -13.75 9.6875 C-14.4925 9.460625 -15.235 9.23375 -16 9 C-14.68 7.68 -13.36 6.36 -12 5 C-12.93392578 5.72123047 -12.93392578 5.72123047 -13.88671875 6.45703125 C-18.18713151 8.58835251 -22.07249558 8.56378624 -26.8125 8.6875 C-28.13797852 8.73874023 -28.13797852 8.73874023 -29.49023438 8.79101562 C-31.65972167 8.87310433 -33.8298389 8.93823879 -36 9 C-32.37 9.33 -28.74 9.66 -25 10 C-25 10.33 -25 10.66 -25 11 C-25.89460938 11.07476562 -26.78921875 11.14953125 -27.7109375 11.2265625 C-38.69877029 12.42140146 -46.63505378 15.65306095 -54 24 C-54.495 22.515 -54.495 22.515 -55 21 C-56.79275866 24.11910856 -57.34290718 26.67682428 -57.625 30.25 C-57.69976562 31.14203125 -57.77453125 32.0340625 -57.8515625 32.953125 C-57.90054688 33.62859375 -57.94953125 34.3040625 -58 35 C-58.62567871 35.26216309 -59.25135742 35.52432617 -59.89599609 35.79443359 C-62.72448091 36.98291235 -65.54974922 38.17885487 -68.375 39.375 C-69.35984375 39.7875 -70.3446875 40.2 -71.359375 40.625 C-72.30039063 41.02460938 -73.24140625 41.42421875 -74.2109375 41.8359375 C-75.08024902 42.20251465 -75.94956055 42.5690918 -76.84521484 42.94677734 C-80.02494684 44.50097673 -80.87407731 45.64445358 -82.0625 49 C-82.371875 49.99 -82.68125 50.98 -83 52 C-84.47563225 54.9512645 -86.50079352 55.06923915 -89.5625 56.125 C-91.08037109 56.65480469 -91.08037109 56.65480469 -92.62890625 57.1953125 C-93.80259766 57.59363281 -93.80259766 57.59363281 -95 58 C-97.015625 56.140625 -97.015625 56.140625 -99 54 C-98.75 51.75 -98.75 51.75 -98 50 C-97.34 50 -96.68 50 -96 50 C-96.05800781 48.77023437 -96.11601562 47.54046875 -96.17578125 46.2734375 C-96.22270005 44.64066312 -96.26819794 43.00784748 -96.3125 41.375 C-96.35439453 40.56675781 -96.39628906 39.75851562 -96.43945312 38.92578125 C-96.52491189 34.72121015 -96.36347153 31.84763481 -93.734375 28.44921875 C-91 26 -91 26 -88.90234375 25.30859375 C-84.59416728 25.59123753 -82.2585919 26.22416245 -79 29 C-75.84396994 28.31121837 -75.84396994 28.31121837 -74.625 25.6875 C-70.91093644 19.54501026 -65.571678 17.85647056 -59 16 C-57.2984375 15.5978125 -57.2984375 15.5978125 -55.5625 15.1875 C-51.47441677 13.82480559 -48.29189696 11.82096625 -44.72265625 9.4375 C-38.52334322 6.16440503 -32.40360994 5.79878185 -25.5625 5.6875 C-19.32596967 5.47774971 -15.19552103 4.65193617 -9.9375 1.078125 C-6.62480181 -0.76523125 -3.70086844 -0.33644259 0 0 Z M-90 32 C-89.93595446 34.00287872 -89.79920681 36.00368415 -89.625 38 C-89.53476563 39.093125 -89.44453125 40.18625 -89.3515625 41.3125 C-89.28885069 43.91428772 -89.28885069 43.91428772 -88 45 C-83.21740783 45.68322745 -80.75937499 43.79767441 -77 41 C-77.47272773 36.74545047 -79.96437376 34.80795427 -83 32 C-83.33 31.67 -83.66 31.34 -84 31 C-87.28894893 30.59371033 -87.28894893 30.59371033 -90 32 Z " fill="#706E73" transform="translate(312,244)"/>
<path d="M0 0 C1.14855469 -0.03867188 2.29710937 -0.07734375 3.48046875 -0.1171875 C5.08148438 -0.17326172 5.08148438 -0.17326172 6.71484375 -0.23046875 C10.47994848 0.30113282 12.07862004 1.51484671 14.73046875 4.1953125 C15.82919701 7.97219091 16.06530899 10.21311445 14.79296875 13.9453125 C9.95347848 19.22475643 2.58770366 19.89034114 -4.26953125 20.1953125 C-7.35286797 20.31780519 -10.43419157 20.3950114 -13.51953125 20.4453125 C-14.69104736 20.47757935 -14.69104736 20.47757935 -15.88623047 20.51049805 C-20.51430026 20.53683342 -23.52207477 20.2101835 -27.26953125 17.1953125 C-29.26953125 14.1953125 -29.26953125 14.1953125 -29.14453125 11.2578125 C-28.12332364 7.68358585 -27.1015089 6.55128711 -24.26953125 4.1953125 C-16.50391248 1.28461024 -8.21339978 0.49064515 0 0 Z " fill="#0F7E8F" transform="translate(190.26953125,195.8046875)"/>
<path d="M0 0 C2.8125 1.875 2.8125 1.875 5 4 C5 4.99 5 5.98 5 7 C2 9 2 9 -1 9.4375 C-4.25226093 10.04729892 -4.86535706 10.66205773 -7 13 C-7.99 13 -8.98 13 -10 13 C-10 13.99 -10 14.98 -10 16 C-9.34 15.34 -8.68 14.68 -8 14 C-7.67 15.32 -7.34 16.64 -7 18 C-5.700625 18.04125 -4.40125 18.0825 -3.0625 18.125 C2.47408649 18.73920135 7.06638548 21.03126392 11 25 C11.8515625 27.5078125 11.8515625 27.5078125 12 30 C9.76793725 34.29242836 7.5785154 37.27033863 3 39 C-1.16647564 39.11200203 -4.77567783 38.56736881 -8.5625 36.8125 C-10.61808082 34.22068071 -10.28504823 32.20679254 -10 29 C-10.53625 28.9175 -11.0725 28.835 -11.625 28.75 C-14.86430387 27.72706194 -17.27318679 25.99966302 -20 24 C-22.03374218 19.93251564 -21.09684173 15.26924551 -20 11 C-15.88049405 4.27448056 -8.52536742 -3.36527661 0 0 Z M-1 27 C-1.33 27.99 -1.66 28.98 -2 30 C-1.01 29.67 -0.02 29.34 1 29 C1 28.34 1 27.68 1 27 C0.34 27 -0.32 27 -1 27 Z " fill="#187787" transform="translate(325,310)"/>
<path d="M0 0 C1.051875 0.28875 2.10375 0.5775 3.1875 0.875 C2.8575 1.6175 2.5275 2.36 2.1875 3.125 C0.95967129 6.01383312 0.95967129 6.01383312 1.1875 9.875 C1.88875 9.66875 2.59 9.4625 3.3125 9.25 C6.78936072 8.79649643 8.96148123 9.59959723 12.1875 10.875 C11.2284375 11.74125 11.2284375 11.74125 10.25 12.625 C8.04629293 14.61795366 8.04629293 14.61795366 7.86157227 16.84082031 C7.1875 18.875 7.1875 18.875 5.08959961 20.33886719 C2.1083473 21.78409827 -0.8726174 23.22401069 -3.875 24.625 C-4.90044922 25.13160156 -5.92589844 25.63820313 -6.98242188 26.16015625 C-12.98190091 29.00827746 -17.19864036 30.3295608 -23.8125 29.875 C-26.2720774 31.21330958 -26.2720774 31.21330958 -27.8125 32.875 C-27.63650249 41.14688305 -22.47129043 46.27706871 -16.875 51.9375 C-15.8540625 52.8965625 -15.8540625 52.8965625 -14.8125 53.875 C-15.1425 54.535 -15.4725 55.195 -15.8125 55.875 C-22.78017759 53.03631654 -28.494882 45.510236 -31.8125 38.875 C-32.4972676 31.91319604 -32.4972676 31.91319604 -29.875 27.9375 C-25.66496184 25.10216818 -21.79917366 24.875 -16.8125 24.875 C-21.00011192 24.62866989 -24.6918803 24.48521924 -28.6875 25.875 C-31.80600507 28.81006359 -32.54503169 31.80575964 -33.8125 35.875 C-35.1325 35.545 -36.4525 35.215 -37.8125 34.875 C-38.125 32.125 -38.125 32.125 -37.8125 28.875 C-33.86810865 24.94619913 -29.20811158 23.13410093 -24.125 21.125 C-23.35349609 20.80917969 -22.58199219 20.49335938 -21.78710938 20.16796875 C-16.10431886 17.875 -16.10431886 17.875 -13.8125 17.875 C-13.86470703 16.87919922 -13.86470703 16.87919922 -13.91796875 15.86328125 C-14.18684095 7.09292619 -14.18684095 7.09292619 -10.8125 2.875 C-9.8225 4.36 -9.8225 4.36 -8.8125 5.875 C-8.131875 4.864375 -7.45125 3.85375 -6.75 2.8125 C-4.317402 -0.17232571 -4.18601142 -0.13724628 0 0 Z M-2.8125 0.875 C-1.8125 2.875 -1.8125 2.875 -1.8125 2.875 Z M-5.8125 3.875 C-4.8225 5.195 -3.8325 6.515 -2.8125 7.875 C-2.1525 7.545 -1.4925 7.215 -0.8125 6.875 C-2.18735532 5.33333358 -2.18735532 5.33333358 -3.8125 3.875 C-4.4725 3.875 -5.1325 3.875 -5.8125 3.875 Z " fill="#242428" transform="translate(267.8125,261.125)"/>
<path d="M0 0 C3 1.3125 3 1.3125 4.25 3.3125 C4.4975 3.9725 4.745 4.6325 5 5.3125 C5.66 5.9725 6.32 6.6325 7 7.3125 C10.15879218 14.7830435 12.41707931 23.17945354 12 31.3125 C9.6568787 31.05688677 7.32156597 30.71979228 5 30.3125 C4.67 29.6525 4.34 28.9925 4 28.3125 C-1.09456694 27.69497673 -3.77383028 29.76085036 -8 32.3125 C-8.66 32.3125 -9.32 32.3125 -10 32.3125 C-11.93999522 24.31202385 -12.72109584 16.44438905 -11 8.3125 C-9.546875 6.6015625 -9.546875 6.6015625 -8 5.3125 C-7.484375 4.44625 -6.96875 3.58 -6.4375 2.6875 C-4.40863137 -0.66454382 -3.85052346 -0.88241163 0 0 Z M-4 7.3125 C-6.02558881 10.66189881 -6.21738987 13.18212551 -6.125 17.0625 C-6.10695313 18.04734375 -6.08890625 19.0321875 -6.0703125 20.046875 C-6.04710937 20.79453125 -6.02390625 21.5421875 -6 22.3125 C-5.01 21.3225 -4.02 20.3325 -3 19.3125 C-2.34 19.6425 -1.68 19.9725 -1 20.3125 C-0.34 19.9825 0.32 19.6525 1 19.3125 C0.45660208 14.74795749 -0.79463821 11.3396824 -3 7.3125 C-3.33 7.3125 -3.66 7.3125 -4 7.3125 Z " fill="#117D8D" transform="translate(270,326.6875)"/>
<path d="M0 0 C0.33 1.98 0.66 3.96 1 6 C-1.31 6.66 -3.62 7.32 -6 8 C-6.69776312 14.9776312 -4.68268331 20.1748622 -2.09375 26.6328125 C-0.9923901 30.02342761 -0.63121794 32.46583858 -1 36 C-1.66 36.66 -2.32 37.32 -3 38 C-5.98580711 37.84285226 -7.63254102 37.27736769 -10.0234375 35.47265625 C-12.74361817 32.06974249 -13.37335423 28.76968111 -14.25 24.5625 C-14.42273438 23.81162109 -14.59546875 23.06074219 -14.7734375 22.28710938 C-15.62050149 18.46523732 -16.21925884 14.93882844 -16 11 C-18.64 11.33 -21.28 11.66 -24 12 C-23.8203125 9.69921875 -23.8203125 9.69921875 -23 7 C-16.7723494 2.22690447 -7.89266438 -2.39171648 0 0 Z " fill="#20757F" transform="translate(301,318)"/>
<path d="M0 0 C0.99 0.66 1.98 1.32 3 2 C2.67 2.5775 2.34 3.155 2 3.75 C0.72924102 6.19883862 0.72924102 6.19883862 1 10 C1.70125 9.79375 2.4025 9.5875 3.125 9.375 C6.60186072 8.92149643 8.77398123 9.72459723 12 11 C11.360625 11.5775 10.72125 12.155 10.0625 12.75 C7.86397125 14.74872083 7.86397125 14.74872083 7.63256836 16.99316406 C7 19 7 19 5.17407227 20.28027344 C4.39604248 20.63637695 3.6180127 20.99248047 2.81640625 21.359375 C1.97142578 21.75253906 1.12644531 22.14570313 0.25585938 22.55078125 C-0.63294922 22.94652344 -1.52175781 23.34226562 -2.4375 23.75 C-3.32244141 24.16121094 -4.20738281 24.57242187 -5.11914062 24.99609375 C-11.67084977 28 -11.67084977 28 -14 28 C-14 26.35 -14 24.7 -14 23 C-13.195625 22.731875 -12.39125 22.46375 -11.5625 22.1875 C-10.716875 21.795625 -9.87125 21.40375 -9 21 C-7.73468137 17.98835784 -7.73468137 17.98835784 -8.5625 14.6875 C-9.02815545 10.76268976 -8.49518349 8.60603078 -7 5 C-5.68 5.33 -4.36 5.66 -3 6 C-3 5.01 -3 4.02 -3 3 C-1.5 1.3125 -1.5 1.3125 0 0 Z " fill="#090E10" transform="translate(268,261)"/>
<path d="M0 0 C6.07080058 2.1426355 10.31478058 6.37956115 13.1875 12.125 C12.63320312 12.41632813 12.07890625 12.70765625 11.5078125 13.0078125 C6.65589103 15.70345959 6.65589103 15.70345959 3.75 20.3125 C3.564375 21.240625 3.37875 22.16875 3.1875 23.125 C1.71186775 26.0762645 -0.31329352 26.19423915 -3.375 27.25 C-4.89287109 27.77980469 -4.89287109 27.77980469 -6.44140625 28.3203125 C-7.22386719 28.58585937 -8.00632813 28.85140625 -8.8125 29.125 C-10.828125 27.265625 -10.828125 27.265625 -12.8125 25.125 C-12.5625 22.875 -12.5625 22.875 -11.8125 21.125 C-11.1525 21.125 -10.4925 21.125 -9.8125 21.125 C-9.4825 19.805 -9.1525 18.485 -8.8125 17.125 C-8.1525 17.125 -7.4925 17.125 -6.8125 17.125 C-6.85890625 16.23296875 -6.9053125 15.3409375 -6.953125 14.421875 C-6.98921875 13.25140625 -7.0253125 12.0809375 -7.0625 10.875 C-7.10890625 9.71484375 -7.1553125 8.5546875 -7.203125 7.359375 C-6.8125 4.125 -6.8125 4.125 -4.97265625 1.7109375 C-2.8125 0.125 -2.8125 0.125 0 0 Z M-3.8125 3.125 C-3.74845446 5.12787872 -3.61170681 7.12868415 -3.4375 9.125 C-3.34726563 10.218125 -3.25703125 11.31125 -3.1640625 12.4375 C-3.10135069 15.03928772 -3.10135069 15.03928772 -1.8125 16.125 C2.97009217 16.80822745 5.42812501 14.92267441 9.1875 12.125 C8.71477227 7.87045047 6.22312624 5.93295427 3.1875 3.125 C2.8575 2.795 2.5275 2.465 2.1875 2.125 C-1.10144893 1.71871033 -1.10144893 1.71871033 -3.8125 3.125 Z " fill="#87808A" transform="translate(225.8125,272.875)"/>
<path d="M0 0 C-0.33 0.66 -0.66 1.32 -1 2 C-0.01 2.66 0.98 3.32 2 4 C1.39671875 4.18175781 0.7934375 4.36351562 0.171875 4.55078125 C-4.82975456 6.06477325 -4.82975456 6.06477325 -9.25 8.75 C-11 10 -11 10 -13.75 9.6875 C-14.4925 9.460625 -15.235 9.23375 -16 9 C-14.68 7.68 -13.36 6.36 -12 5 C-12.62261719 5.48082031 -13.24523437 5.96164063 -13.88671875 6.45703125 C-18.18713151 8.58835251 -22.07249558 8.56378624 -26.8125 8.6875 C-28.13797852 8.73874023 -28.13797852 8.73874023 -29.49023438 8.79101562 C-31.65972167 8.87310433 -33.8298389 8.93823879 -36 9 C-30.555 9.495 -30.555 9.495 -25 10 C-25 10.33 -25 10.66 -25 11 C-25.89460938 11.07476562 -26.78921875 11.14953125 -27.7109375 11.2265625 C-36.20669393 12.15040808 -42.0833097 13.99932804 -49 19 C-49.99 19.66 -50.98 20.32 -52 21 C-50.5741914 17.54804233 -48.90253666 15.8985744 -45.875 13.75 C-45.15054687 13.22921875 -44.42609375 12.7084375 -43.6796875 12.171875 C-43.12539063 11.78515625 -42.57109375 11.3984375 -42 11 C-43.41875765 11.76697796 -44.83491452 12.53876778 -46.25 13.3125 C-47.03890625 13.74175781 -47.8278125 14.17101562 -48.640625 14.61328125 C-50.89727134 15.9396214 -52.93998597 17.38884224 -55 19 C-55.33 18.67 -55.66 18.34 -56 18 C-62.14473467 18.55381729 -67.68595106 20.4776021 -72 25 C-73.49638414 28.14323478 -73.49638414 28.14323478 -74 31 C-74.33 31 -74.66 31 -75 31 C-75.4375 28.375 -75.4375 28.375 -75 25 C-70.16070504 18.65413208 -62.96347539 16.93682146 -55.5625 15.1875 C-51.47441677 13.82480559 -48.29189696 11.82096625 -44.72265625 9.4375 C-38.52334322 6.16440503 -32.40360994 5.79878185 -25.5625 5.6875 C-19.32596967 5.47774971 -15.19552103 4.65193617 -9.9375 1.078125 C-6.62480181 -0.76523125 -3.70086844 -0.33644259 0 0 Z " fill="#7F7C83" transform="translate(312,244)"/>
<path d="M0 0 C-0.88441364 5.79355023 -5.56229749 8.64585174 -10 12 C-24.49066133 21.44589328 -41.40205134 29.0512049 -59 28 C-59 27.01 -59 26.02 -59 25 C-58.22398437 24.90203125 -57.44796875 24.8040625 -56.6484375 24.703125 C-37.66646099 22.0755483 -17.05747877 15.50928126 -3.33203125 1.26953125 C-2 0 -2 0 0 0 Z " fill="#F5F1F6" transform="translate(318,282)"/>
<path d="M0 0 C6.36427851 -0.36024218 6.36427851 -0.36024218 8.875 1.0625 C10.66890244 4.15199865 11 6.42896064 11 10 C8.43862593 13.80547005 5.62356414 16.28232689 2 19 C1.67 19.99 1.34 20.98 1 22 C-2.71055417 24.01430083 -5.82851735 24.19402245 -10 24 C-10.33 22.68 -10.66 21.36 -11 20 C-8.61426621 18.10786631 -6.92824652 16.97608217 -4 16 C-4 15.01 -4 14.02 -4 13 C-2.906875 12.896875 -1.81375 12.79375 -0.6875 12.6875 C3.44055677 11.95315172 3.44055677 11.95315172 6 9 C6.33 8.01 6.66 7.02 7 6 C4.69 6 2.38 6 0 6 C0.66 4.68 1.32 3.36 2 2 C1.34 1.34 0.68 0.68 0 0 Z " fill="#625F66" transform="translate(309,243)"/>
<path d="M0 0 C0.99 0.33 1.98 0.66 3 1 C2.9484375 2.00933594 2.896875 3.01867187 2.84375 4.05859375 C3.01098959 8.2772124 3.94330616 11.15779294 5.5 15.0625 C7.29492818 19.57475 8.51047833 23.115006 8 28 C7.34 28.66 6.68 29.32 6 30 C2.95455995 29.83971368 1.35035935 29.27509204 -1.0546875 27.38671875 C-3.5532917 24.32116219 -4.01785096 21.80568745 -4.75 17.9375 C-4.99234375 16.70902344 -5.2346875 15.48054688 -5.484375 14.21484375 C-6 11 -6 11 -6 8 C-5.34 8 -4.68 8 -4 8 C-3.34 11.63 -2.68 15.26 -2 19 C-1.34 18.67 -0.68 18.34 0 18 C0 12.06 0 6.12 0 0 Z " fill="#1C7783" transform="translate(292,326)"/>
<path d="M0 0 C4 0 4 0 7 1 C6.67 2.32 6.34 3.64 6 5 C7.32 5.66 8.64 6.32 10 7 C3.375 9.875 3.375 9.875 0 11 C-0.73323796 13.01508358 -0.73323796 13.01508358 -1 15 C-2.32 14.67 -3.64 14.34 -5 14 C-5 13.34 -5 12.68 -5 12 C-8.13349732 10.95550089 -8.98968256 11.06576355 -12 12 C-12.33 11.34 -12.66 10.68 -13 10 C-11.68 10 -10.36 10 -9 10 C-9.33 8.35 -9.66 6.7 -10 5 C-9.34 5 -8.68 5 -8 5 C-8 4.34 -8 3.68 -8 3 C-7.34 3 -6.68 3 -6 3 C-6 2.34 -6 1.68 -6 1 C-5.38125 1.20625 -4.7625 1.4125 -4.125 1.625 C-3.073125 1.810625 -3.073125 1.810625 -2 2 C-1.34 1.34 -0.68 0.68 0 0 Z " fill="#2F2E34" transform="translate(281,260)"/>
<path d="M0 0 C2.97 0.33 5.94 0.66 9 1 C9.66 2.98 10.32 4.96 11 7 C12.65 7.33 14.3 7.66 16 8 C16.62674095 17.12256267 16.62674095 17.12256267 14.125 20.625 C12 22 12 22 10 22 C9.67 22.99 9.34 23.98 9 25 C6.01540871 26.95542188 4.73585209 27 1 27 C-0.3308911 24.33821779 -0.11268993 22.31260604 -0.09765625 19.3359375 C-0.09443359 18.21445313 -0.09121094 17.09296875 -0.08789062 15.9375 C-0.07951172 14.761875 -0.07113281 13.58625 -0.0625 12.375 C-0.05798828 11.19164062 -0.05347656 10.00828125 -0.04882812 8.7890625 C-0.03701467 5.85932493 -0.02054258 2.92968728 0 0 Z M1 1 C1.33 8.59 1.66 16.18 2 24 C2.99 24.33 3.98 24.66 5 25 C9.208043 21.00775407 11.11366241 18.5072871 11.375 12.6875 C11.33586711 9.26057682 10.91942934 7.22777999 8.8125 4.5 C5.97981145 1.55839675 5.97981145 1.55839675 1 1 Z " fill="#117C8C" transform="translate(233,184)"/>
<path d="M0 0 C0.99 0 1.98 0 3 0 C4.49590709 2.99181417 4.42743011 4.6416206 4 8 C1.52876149 12.64464045 -1.69893105 17.90860669 -6 21 C-9.25 21.25 -9.25 21.25 -12 21 C-13.35439668 18.29120665 -13.06501451 15.99066732 -13 13 C-11.741875 12.938125 -10.48375 12.87625 -9.1875 12.8125 C-5.66694289 12.3746965 -5.66694289 12.3746965 -3.125 9.875 C-1.85381827 6.62642448 -0.86148057 3.37965454 0 0 Z " fill="#8A8493" transform="translate(262,315)"/>
<path d="M0 0 C-0.63808594 0.23976563 -1.27617187 0.47953125 -1.93359375 0.7265625 C-4.16879804 1.80689496 -4.16879804 1.80689496 -4.72265625 4.0234375 C-4.83480469 4.79945313 -4.94695312 5.57546875 -5.0625 6.375 C-6.32181621 12.94672576 -6.32181621 12.94672576 -9 15 C-11.75429869 15.32178935 -14.20851406 15.18304826 -17 15 C-16.34452459 10.52091802 -15.6989641 6.20695874 -14 2 C-9.49191008 -0.46871591 -5.00767975 -0.17267861 0 0 Z " fill="#7C777F" transform="translate(266,313)"/>
<path d="M0 0 C0 0.99 0 1.98 0 3 C-0.83144531 3.29003906 -0.83144531 3.29003906 -1.6796875 3.5859375 C-2.40414062 3.84632813 -3.12859375 4.10671875 -3.875 4.375 C-4.59429687 4.63023437 -5.31359375 4.88546875 -6.0546875 5.1484375 C-8.18157994 5.93877783 -8.18157994 5.93877783 -10 8 C-10.15617884 15.65276325 -5.42796291 20.33386597 -0.42578125 25.68359375 C0.6916427 26.81382485 1.84159954 27.91180563 3 29 C2.67 29.66 2.34 30.32 2 31 C-4.96767759 28.16131654 -10.682382 20.635236 -14 14 C-14.69733656 6.91041162 -14.69733656 6.91041162 -11.75 3.0625 C-7.69125763 0.01844322 -4.98711443 -0.13853096 0 0 Z " fill="#121117" transform="translate(250,286)"/>
<path d="M0 0 C0.66 0.66 1.32 1.32 2 2 C1.53820907 6.46397899 -0.82125047 9.95992688 -4.125 12.875 C-8.27292578 14.49810139 -11.72223706 14.03751713 -16 13 C-18.5625 11.75 -18.5625 11.75 -20 10 C-20.25 7.3125 -20.25 7.3125 -20 5 C-19.67 5.66 -19.34 6.32 -19 7 C-18.01 7 -17.02 7 -16 7 C-15.319375 5.7934375 -15.319375 5.7934375 -14.625 4.5625 C-13 2 -13 2 -10.3125 1.1875 C-9.549375 1.125625 -8.78625 1.06375 -8 1 C-8.25 3.375 -8.25 3.375 -9 6 C-11 7.1875 -11 7.1875 -13 8 C-13.33 8.66 -13.66 9.32 -14 10 C-13.01 9.34 -12.02 8.68 -11 8 C-8.66666667 7.33333333 -6.33333333 6.66666667 -4 6 C-0.87525373 4.36526484 -0.87525373 4.36526484 -0.3125 1.875 C-0.209375 1.25625 -0.10625 0.6375 0 0 Z M-11 2 C-11.33 2.99 -11.66 3.98 -12 5 C-11.01 4.67 -10.02 4.34 -9 4 C-9 3.34 -9 2.68 -9 2 C-9.66 2 -10.32 2 -11 2 Z " fill="#256B6F" transform="translate(335,335)"/>
<path d="M0 0 C-1.98 0.99 -3.96 1.98 -6 3 C-4.68 3.66 -3.36 4.32 -2 5 C-3.485 7.475 -3.485 7.475 -5 10 C-5.66 9.67 -6.32 9.34 -7 9 C-7 10.65 -7 12.3 -7 14 C-8.32 14.33 -9.64 14.66 -11 15 C-10.98839844 16.13695312 -10.97679687 17.27390625 -10.96484375 18.4453125 C-10.89822927 28.02322619 -11.14050641 37.45348194 -12 47 C-12.33 47 -12.66 47 -13 47 C-13.17347928 41.27098976 -13.30027012 35.54351833 -13.38452148 29.8125 C-13.41965164 27.86463786 -13.46736833 25.91695937 -13.52807617 23.96972656 C-13.61332934 21.16425257 -13.65276045 18.36122361 -13.68359375 15.5546875 C-13.71972275 14.68883026 -13.75585175 13.82297302 -13.79307556 12.93087769 C-13.79539143 9.33739653 -13.78308683 6.96495632 -11.46536255 4.10894775 C-5.02917493 -1.50875248 -5.02917493 -1.50875248 0 0 Z M-6 5 C-5.67 5.66 -5.34 6.32 -5 7 C-4.67 6.34 -4.34 5.68 -4 5 C-4.66 5 -5.32 5 -6 5 Z " fill="#116773" transform="translate(225,167)"/>
<path d="M0 0 C5.46918404 1.69906637 10.17269169 6.88295834 13.125 11.66015625 C12.795 12.65015625 12.465 13.64015625 12.125 14.66015625 C11.403125 13.91765625 10.68125 13.17515625 9.9375 12.41015625 C4.04157882 6.47283546 4.04157882 6.47283546 -3.875 4.66015625 C-5.65068819 5.68788505 -5.65068819 5.68788505 -6.875 7.66015625 C-7.45592992 10.85261623 -7.45592992 10.85261623 -7.5625 14.34765625 C-7.66111328 16.11689453 -7.66111328 16.11689453 -7.76171875 17.921875 C-7.81779297 19.27732422 -7.81779297 19.27732422 -7.875 20.66015625 C-8.865 20.33015625 -9.855 20.00015625 -10.875 19.66015625 C-11.73384934 6.79650166 -11.73384934 6.79650166 -8.875 2.84765625 C-5.8202301 0.62021987 -3.82145241 -0.28226637 0 0 Z " fill="#16131B" transform="translate(226.875,269.33984375)"/>
<path d="M0 0 C2.82295774 4.2344366 2.66026581 8.02762788 2 13 C0.07683035 15.92036873 -1.21599208 16.69845849 -4.4375 17.9375 C-7.84440708 18.02059529 -9.36757612 17.12056368 -12 15 C-12.8125 12.8125 -12.8125 12.8125 -13 11 C-13.99 11.33 -14.98 11.66 -16 12 C-17.25325285 14.78526449 -17.25325285 14.78526449 -18.1875 18.0625 C-18.53167969 19.16722656 -18.87585938 20.27195313 -19.23046875 21.41015625 C-19.48441406 22.26480469 -19.73835938 23.11945313 -20 24 C-20.33 24 -20.66 24 -21 24 C-20.63495936 18.33557626 -19.9445679 13.99296295 -17 9 C-15.35 9 -13.7 9 -12 9 C-12 8.01 -12 7.02 -12 6 C-8.00513068 7.33162311 -5.94159079 9.05840921 -3 12 C-2.01 12 -1.02 12 0 12 C0 8.04 0 4.08 0 0 Z " fill="#197581" transform="translate(332,177)"/>
<path d="M0 0 C0 0.66 0 1.32 0 2 C-0.99 2.33 -1.98 2.66 -3 3 C-2.01 3.33 -1.02 3.66 0 4 C0 4.66 0 5.32 0 6 C-1.98 6.99 -3.96 7.98 -6 9 C-6.33 8.67 -6.66 8.34 -7 8 C-7.33 9.32 -7.66 10.64 -8 12 C-12.455 12.495 -12.455 12.495 -17 13 C-17.17015625 13.62648437 -17.3403125 14.25296875 -17.515625 14.8984375 C-17.75796875 15.71570313 -18.0003125 16.53296875 -18.25 17.375 C-18.48203125 18.18710938 -18.7140625 18.99921875 -18.953125 19.8359375 C-20.2214892 22.45785454 -21.32423308 22.99382318 -24 24 C-21.82047824 14.99131005 -17.17587645 8.28837734 -9.2578125 3.2578125 C-2.90783898 0 -2.90783898 0 0 0 Z " fill="#167985" transform="translate(312,167)"/>
<path d="M0 0 C0.66 0.33 1.32 0.66 2 1 C1.525625 1.61875 1.05125 2.2375 0.5625 2.875 C-1.02417441 4.90705546 -1.02417441 4.90705546 -2 7 C-3.6706543 7.76196289 -3.6706543 7.76196289 -5.82421875 8.47265625 C-6.60603516 8.73240234 -7.38785156 8.99214844 -8.19335938 9.25976562 C-9.01642578 9.52466797 -9.83949219 9.78957031 -10.6875 10.0625 C-11.49123047 10.33126953 -12.29496094 10.60003906 -13.12304688 10.87695312 C-24.47903608 14.60038049 -24.47903608 14.60038049 -28.375 13.0625 C-28.91125 12.711875 -29.4475 12.36125 -30 12 C-29 10 -29 10 -27.08569336 9.28564453 C-25.8502478 8.96249268 -25.8502478 8.96249268 -24.58984375 8.6328125 C-23.68169922 8.38660156 -22.77355469 8.14039063 -21.83789062 7.88671875 C-19.93179564 7.38612815 -18.02554998 6.88611081 -16.11914062 6.38671875 C-11.64708421 5.17363809 -7.55311968 3.9035085 -3.44140625 1.7421875 C-2.30574219 1.16726563 -1.17007812 0.59234375 0 0 Z " fill="#918A92" transform="translate(298,299)"/>
<path d="M0 0 C-1 3 -1 3 -2.7421875 3.87890625 C-3.44601563 4.10449219 -4.14984375 4.33007812 -4.875 4.5625 C-7.70926461 5.48808088 -9.45158826 6.30105884 -12 8 C-12 9.32 -12 10.64 -12 12 C-9.36 12.33 -6.72 12.66 -4 13 C-4.33 14.32 -4.66 15.64 -5 17 C-6.60517097 16.91266424 -8.20921662 16.80447776 -9.8125 16.6875 C-10.70582031 16.62949219 -11.59914062 16.57148438 -12.51953125 16.51171875 C-15.34332929 15.92917144 -16.31851998 15.31203502 -18 13 C-18.1875 10.1875 -18.1875 10.1875 -17 7 C-11.74486514 1.94383461 -7.3267348 -0.16281633 0 0 Z " fill="#18181C" transform="translate(256,262)"/>
<path d="M0 0 C0.33 0 0.66 0 1 0 C1.33 5.61 1.66 11.22 2 17 C2.99 17 3.98 17 5 17 C6 20 6 20 4.4375 23.375 C2.63948662 26.84577794 2.63948662 26.84577794 3.8125 29.9375 C4.4003125 30.9584375 4.4003125 30.9584375 5 32 C7.64 32 10.28 32 13 32 C13 32.66 13 33.32 13 34 C14.98 33.34 16.96 32.68 19 32 C17 35 17 35 13.25 35.875 C9.06150753 36.23987775 6.50252896 35.44362485 3 33 C-3.31481366 25.81417756 -1.36941607 11.96377219 -1 3 C-0.67 2.01 -0.34 1.02 0 0 Z " fill="#09717E" transform="translate(213,216)"/>
<path d="M0 0 C2.8125 1.875 2.8125 1.875 5 4 C5 4.99 5 5.98 5 7 C2 9 2 9 -1 9.4375 C-4.25226093 10.04729892 -4.86535706 10.66205773 -7 13 C-7.99 13 -8.98 13 -10 13 C-8.94124926 9.59687262 -7.99097846 6.98646769 -6 4 C-2.875 3.8125 -2.875 3.8125 0 4 C-0.33 3.34 -0.66 2.68 -1 2 C-6.99291003 2.41330414 -10.25036599 3.31903365 -15 7 C-13.25165334 2.74120686 -11.0913159 1.55693217 -7.0234375 -0.30078125 C-4.2178967 -1.2702635 -2.72578422 -1.1787175 0 0 Z " fill="#2E6469" transform="translate(325,310)"/>
<path d="M0 0 C1.98 0.66 3.96 1.32 6 2 C5.01 2.33 4.02 2.66 3 3 C-0.0109362 5.0072908 -0.63016497 5.83884224 -2 9 C-2.66 9 -3.32 9 -4 9 C-4.77546747 17.84032918 -5.19354532 26.16776465 -4 35 C-2.515 34.505 -2.515 34.505 -1 34 C-1 34.99 -1 35.98 -1 37 C-5.75 37.125 -5.75 37.125 -8 36 C-10.09821215 36.39938767 -10.09821215 36.39938767 -12 37 C-11.67 34.69 -11.34 32.38 -11 30 C-10.01 30 -9.02 30 -8 30 C-7.94839722 29.09290283 -7.94839722 29.09290283 -7.89575195 28.16748047 C-7.72494989 25.40128142 -7.51905013 22.63875036 -7.3125 19.875 C-7.25900391 18.92367188 -7.20550781 17.97234375 -7.15039062 16.9921875 C-6.63759443 10.57108727 -5.52628679 7.57618286 -1 3 C-0.67 2.01 -0.34 1.02 0 0 Z " fill="#1A5F6A" transform="translate(264,324)"/>
<path d="M0 0 C0.33 0.66 0.66 1.32 1 2 C-0.65 2.33 -2.3 2.66 -4 3 C-4 3.66 -4 4.32 -4 5 C-5.98 5.99 -5.98 5.99 -8 7 C-8 8.98 -8 10.96 -8 13 C-7.01 13 -6.02 13 -5 13 C-5 13.99 -5 14.98 -5 16 C-4.34 16 -3.68 16 -3 16 C-3 16.99 -3 17.98 -3 19 C5.25 18.01 13.5 17.02 22 16 C22.495 16.99 22.495 16.99 23 18 C3.46229508 21.37168405 3.46229508 21.37168405 -6 20 C-9.14027622 17.6046987 -9.88589447 16.41838694 -10.9375 12.5625 C-11.01007884 8.4255059 -10.7425936 7.07502918 -8 4 C-5.42048927 2.44620023 -2.76939177 1.17748486 0 0 Z " fill="#1E6E78" transform="translate(172,167)"/>
<path d="M0 0 C-0.75 2.4375 -0.75 2.4375 -2 5 C-4.125 5.8125 -4.125 5.8125 -6 6 C-4.68 7.32 -3.36 8.64 -2 10 C-3.32 10 -4.64 10 -6 10 C-6 9.34 -6 8.68 -6 8 C-17.53737528 7.83017454 -17.53737528 7.83017454 -29 9 C-26.8614515 6.8614515 -25.86724686 6.57344937 -23 6 C-23.99 5.34 -24.98 4.68 -26 4 C-23.715518 2.857759 -22.29499802 2.83324024 -19.75390625 2.75390625 C-18.49803711 2.70459961 -18.49803711 2.70459961 -17.21679688 2.65429688 C-15.45129812 2.59323842 -13.68566561 2.53592926 -11.91992188 2.48242188 C-11.08138672 2.44826172 -10.24285156 2.41410156 -9.37890625 2.37890625 C-8.6113501 2.3538501 -7.84379395 2.32879395 -7.05297852 2.30297852 C-4.23767446 1.88749602 -2.87075216 0 0 0 Z " fill="#28272C" transform="translate(300,249)"/>
<path d="M0 0 C-0.99 2.31 -1.98 4.62 -3 7 C-3.66 7 -4.32 7 -5 7 C-5 9.64 -5 12.28 -5 15 C-4.01 15 -3.02 15 -2 15 C-2.33 16.65 -2.66 18.3 -3 20 C-3.99 20 -4.98 20 -6 20 C-6.268125 19.21625 -6.53625 18.4325 -6.8125 17.625 C-7.84814432 14.71885077 -7.84814432 14.71885077 -11 13 C-11 8.94831041 -9.55335434 4.67899713 -8 1 C-5.12457514 -1.20449239 -3.357474 -1.19909786 0 0 Z " fill="#117E8F" transform="translate(317,315)"/>
<path d="M0 0 C-0.33 0.66 -0.66 1.32 -1 2 C-0.01 2.66 0.98 3.32 2 4 C1.39671875 4.18175781 0.7934375 4.36351562 0.171875 4.55078125 C-4.82975456 6.06477325 -4.82975456 6.06477325 -9.25 8.75 C-11 10 -11 10 -13.75 9.6875 C-14.4925 9.460625 -15.235 9.23375 -16 9 C-14.68 7.68 -13.36 6.36 -12 5 C-12.7425 5.515625 -13.485 6.03125 -14.25 6.5625 C-17 8 -17 8 -19.3125 7.6875 C-19.869375 7.460625 -20.42625 7.23375 -21 7 C-20.14148438 6.58621094 -20.14148438 6.58621094 -19.265625 6.1640625 C-16.99823392 5.03751628 -16.99823392 5.03751628 -14.921875 3.7109375 C-9.62347314 0.45184859 -6.20758963 -0.56432633 0 0 Z " fill="#938B97" transform="translate(312,244)"/>
<path d="M0 0 C-0.33 0.66 -0.66 1.32 -1 2 C-2.890625 2.30859375 -2.890625 2.30859375 -5.25 2.4375 C-9.2482518 2.83097875 -11.93495451 3.2053997 -15 6 C-16.28679014 8.63609639 -17.12223057 11.18189814 -18 14 C-19.32 13.67 -20.64 13.34 -22 13 C-22.3125 10.25 -22.3125 10.25 -22 7 C-16.57423767 0.85080269 -7.84347371 -2.04612358 0 0 Z " fill="#17151B" transform="translate(252,283)"/>
<path d="M0 0 C0.99 0.33 1.98 0.66 3 1 C2.92265625 2.51400391 2.92265625 2.51400391 2.84375 4.05859375 C3.01098959 8.2772124 3.94330616 11.15779294 5.5 15.0625 C7.29492818 19.57475 8.51047833 23.115006 8 28 C7.34 28.66 6.68 29.32 6 30 C3.375 29.625 3.375 29.625 1 29 C1.99 28.67 2.98 28.34 4 28 C3.71507769 25.64484432 3.42225086 23.29110566 3.125 20.9375 C3.00705078 19.95233398 3.00705078 19.95233398 2.88671875 18.94726562 C2.31418734 14.47711655 1.26296551 10.33618159 0 6 C-0.125 2.5625 -0.125 2.5625 0 0 Z " fill="#416A64" transform="translate(292,326)"/>
<path d="M0 0 C1.60101563 -0.05607422 1.60101563 -0.05607422 3.234375 -0.11328125 C7.00656083 0.41932012 8.61039726 1.60607187 11.25 4.3125 C12.0625 8.0625 12.0625 8.0625 12.25 11.3125 C11.755 9.3325 11.755 9.3325 11.25 7.3125 C10.59 7.3125 9.93 7.3125 9.25 7.3125 C9.25 6.6525 9.25 5.9925 9.25 5.3125 C8.59 5.3125 7.93 5.3125 7.25 5.3125 C7.25 4.6525 7.25 3.9925 7.25 3.3125 C-4.55247133 2.99061442 -16.03000331 3.97987093 -27.75 5.3125 C-20.06622844 0.18998563 -8.97464684 0.29309094 0 0 Z " fill="#1E757D" transform="translate(193.75,195.6875)"/>
<path d="M0 0 C0.99 0.33 1.98 0.66 3 1 C2.34 1.433125 1.68 1.86625 1 2.3125 C-2.11496825 6.49823859 -1.47079723 10.94471828 -1 16 C-0.67 16.99 -0.34 17.98 0 19 C-0.27769908 21.3406065 -0.60539977 23.67624308 -1 26 C-0.01 26.33 0.98 26.66 2 27 C3.1875 30.0625 3.1875 30.0625 4 33 C8.95 32.505 8.95 32.505 14 32 C9.72076717 34.13961641 7.68828152 34.41859656 3 34 C0.67818157 32.62300914 -0.69674103 31.6637366 -1.828125 29.1875 C-2.99447727 23.1397475 -3.23190944 17.14330344 -3.3125 11 C-3.33908691 9.72576172 -3.33908691 9.72576172 -3.36621094 8.42578125 C-3.36524414 7.62527344 -3.36427734 6.82476562 -3.36328125 6 C-3.36626221 5.278125 -3.36924316 4.55625 -3.37231445 3.8125 C-3 2 -3 2 0 0 Z " fill="#1C6A74" transform="translate(236,329)"/>
<path d="M0 0 C0.33 2.64 0.66 5.28 1 8 C-2.96 8 -6.92 8 -11 8 C-11.33 8.66 -11.66 9.32 -12 10 C-12 7.69 -12 5.38 -12 3 C-11.34 3 -10.68 3 -10 3 C-10 2.34 -10 1.68 -10 1 C-6.59437148 0.22157062 -3.49234244 -0.09978121 0 0 Z " fill="#257685" transform="translate(249,327)"/>
<path d="M0 0 C-0.31477902 2.93793754 -1.06421942 4.07200359 -3.0625 6.3125 C-7.28858177 8.7402491 -9.31721677 8.22827101 -14 7 C-15.23828125 4.9375 -15.23828125 4.9375 -16 3 C-15.37351562 2.86722656 -14.74703125 2.73445312 -14.1015625 2.59765625 C-13.28429687 2.42105469 -12.46703125 2.24445313 -11.625 2.0625 C-10.81289063 1.88847656 -10.00078125 1.71445313 -9.1640625 1.53515625 C-2.671875 -0.0703125 -2.671875 -0.0703125 0 0 Z " fill="#35272B" transform="translate(316,249)"/>
<path d="M0 0 C2 1 2 1 2.78125 2.75 C5.1237633 10.08308511 7.39884159 17.22258908 7 25 C4.69 24.67 2.38 24.34 0 24 C0 23.01 0 22.02 0 21 C1.32 21 2.64 21 4 21 C3.67 18.69 3.34 16.38 3 14 C2.34 14 1.68 14 1 14 C0.67 9.38 0.34 4.76 0 0 Z " fill="#286E78" transform="translate(275,333)"/>
<path d="M0 0 C1.65 0.33 3.3 0.66 5 1 C5 1.66 5 2.32 5 3 C5.99 3 6.98 3 8 3 C8.33 6.63 8.66 10.26 9 14 C6.25 16.0625 6.25 16.0625 3 18 C0.796875 17.62109375 0.796875 17.62109375 -1 17 C-1.02699725 14.72923158 -1.04639453 12.45837179 -1.0625 10.1875 C-1.07990234 8.29064453 -1.07990234 8.29064453 -1.09765625 6.35546875 C-1 3 -1 3 0 0 Z M2 1 C-0.02558881 4.34939881 -0.21738987 6.86962551 -0.125 10.75 C-0.10695313 11.73484375 -0.08890625 12.7196875 -0.0703125 13.734375 C-0.04710937 14.48203125 -0.02390625 15.2296875 0 16 C0.99 15.01 1.98 14.02 3 13 C3.66 13.33 4.32 13.66 5 14 C5.66 13.67 6.32 13.34 7 13 C6.45660208 8.43545749 5.20536179 5.0271824 3 1 C2.67 1 2.34 1 2 1 Z " fill="#206C76" transform="translate(264,333)"/>
<path d="M0 0 C0.33 1.98 0.66 3.96 1 6 C-1.31 6.33 -3.62 6.66 -6 7 C-6 6.01 -6 5.02 -6 4 C-11.94 4.495 -11.94 4.495 -18 5 C-12.75204561 1.06403421 -6.64692038 -2.35858465 0 0 Z " fill="#2D6B6C" transform="translate(301,318)"/>
<path d="M0 0 C5.44839389 1.78120569 9.01429746 5.22887687 12.1875 9.9375 C12.538125 10.63875 12.88875 11.34 13.25 12.0625 C7.72759424 16.17492982 4.15703976 17.67919998 -2.75 17.0625 C-2.42 16.4025 -2.09 15.7425 -1.75 15.0625 C-1.028125 15.124375 -0.30625 15.18625 0.4375 15.25 C3.77858974 15.02726068 5.52032755 13.9342754 8.25 12.0625 C7.77613972 7.79775752 5.47968679 5.70497101 2.25 3.0625 C-0.46163778 2.64263054 -0.46163778 2.64263054 -2.75 3.0625 C-3.08 4.0525 -3.41 5.0425 -3.75 6.0625 C-4.74 6.3925 -5.73 6.7225 -6.75 7.0625 C-6.35662881 4.78094707 -5.83713789 3.19549993 -4.5625 1.25 C-2.75 0.0625 -2.75 0.0625 0 0 Z " fill="#757278" transform="translate(225.75,272.9375)"/>
<path d="M0 0 C3.16115776 1.36983503 3.9927092 1.9890638 6 5 C6.1953125 7.69921875 6.1953125 7.69921875 6.125 10.6875 C6.10695313 11.68136719 6.08890625 12.67523438 6.0703125 13.69921875 C6.03550781 14.83810547 6.03550781 14.83810547 6 16 C4.68 15.67 3.36 15.34 2 15 C0.82428549 11.32589215 0.92633254 7.83070817 1 4 C0.34 3.67 -0.32 3.34 -1 3 C-0.67 2.01 -0.34 1.02 0 0 Z " fill="#107E8F" transform="translate(287,330)"/>
<path d="M0 0 C0.33 0.99 0.66 1.98 1 3 C-0.3921875 3.061875 -0.3921875 3.061875 -1.8125 3.125 C-5.25071558 3.68999295 -5.25071558 3.68999295 -6.875 6.875 C-8.01030237 10.0286177 -8.31722487 11.83684214 -7.4375 15.0625 C-7 17 -7 17 -8 19 C-9.32 19 -10.64 19 -12 19 C-12 16.36 -12 13.72 -12 11 C-11.34 11 -10.68 11 -10 11 C-9.40267181 8.23735711 -9 5.83967231 -9 3 C-7.14340032 -0.71319936 -3.69365381 -0.09982848 0 0 Z " fill="#1B7884" transform="translate(324,311)"/>
<path d="M0 0 C0.33 0 0.66 0 1 0 C1.33 7.59 1.66 15.18 2 23 C0 21 0 21 -0.1953125 17.9609375 C-0.17210937 16.77757812 -0.14890625 15.59421875 -0.125 14.375 C-0.10695313 13.18648437 -0.08890625 11.99796875 -0.0703125 10.7734375 C-0.04710937 9.85820312 -0.02390625 8.94296875 0 8 C-2.37258681 10.33202977 -4.6432004 12.67502271 -6.75 15.25 C-7.4925 16.1575 -8.235 17.065 -9 18 C-9.66 17.67 -10.32 17.34 -11 17 C-10.67 15.68 -10.34 14.36 -10 13 C-8.68 13 -7.36 13 -6 13 C-5.01 10.03 -4.02 7.06 -3 4 C-2.34 4 -1.68 4 -1 4 C-0.67 2.68 -0.34 1.36 0 0 Z " fill="#11707B" transform="translate(265,205)"/>
<path d="M0 0 C2.31 0.33 4.62 0.66 7 1 C7.33 2.32 7.66 3.64 8 5 C2.19354839 10 2.19354839 10 -1 10 C-3.25 8.0625 -3.25 8.0625 -5 6 C-4.67 5.34 -4.34 4.68 -4 4 C-2.515 4.99 -2.515 4.99 -1 6 C-1 5.01 -1 4.02 -1 3 C-0.67 2.01 -0.34 1.02 0 0 Z " fill="#15141A" transform="translate(218,292)"/>
<path d="M0 0 C1.32 0.33 2.64 0.66 4 1 C3.01 1 2.02 1 1 1 C1.15339844 1.80695313 1.30679688 2.61390625 1.46484375 3.4453125 C2.0888952 7.59047179 2.34627204 11.6922296 2.5625 15.875 C2.60568359 16.65875 2.64886719 17.4425 2.69335938 18.25 C2.79853351 20.16650649 2.89967925 22.08323333 3 24 C5.31 23.34 7.62 22.68 10 22 C9 25 9 25 7.1875 26.1875 C5 27 5 27 1 27 C-0.3308911 24.33821779 -0.11268993 22.31260604 -0.09765625 19.3359375 C-0.09443359 18.21445313 -0.09121094 17.09296875 -0.08789062 15.9375 C-0.07951172 14.761875 -0.07113281 13.58625 -0.0625 12.375 C-0.05798828 11.19164062 -0.05347656 10.00828125 -0.04882812 8.7890625 C-0.03701467 5.85932493 -0.02054258 2.92968728 0 0 Z " fill="#1D6C79" transform="translate(233,184)"/>
<path d="M0 0 C0 0.99 0 1.98 0 3 C1.84188612 5.05270463 1.84188612 5.05270463 4 6 C-2.625 8.875 -2.625 8.875 -6 10 C-6.73323796 12.01508358 -6.73323796 12.01508358 -7 14 C-8.32 13.67 -9.64 13.34 -11 13 C-11 12.34 -11 11.68 -11 11 C-14.13349732 9.95550089 -14.98968256 10.06576355 -18 11 C-18.33 10.34 -18.66 9.68 -19 9 C-17.68 9 -16.36 9 -15 9 C-15.33 7.35 -15.66 5.7 -16 4 C-15.01 4.33 -14.02 4.66 -13 5 C-12.67 5.99 -12.34 6.98 -12 8 C-8.58343976 8.16677282 -8.58343976 8.16677282 -5 8 C-2.77077045 5.77077045 -2.11871047 3.90864722 -1 1 C-0.67 0.67 -0.34 0.34 0 0 Z " fill="#626267" transform="translate(287,261)"/>
<path d="M0 0 C2.8366585 1.11747153 5.57189497 2.28055225 8.3125 3.625 C12.69908103 5.26067428 15.36038688 5.38663443 20 5 C20.99 4.34 21.98 3.68 23 3 C25.6875 2.875 25.6875 2.875 28 3 C28 2.01 28 1.02 28 0 C28.99 0.33 29.98 0.66 31 1 C27.57101996 4.83238945 25.10275329 7.03721636 20 8 C13.41015526 8.08860295 7.4396737 6.86643474 2 3 C1.34 2.01 0.68 1.02 0 0 Z " fill="#1E6C78" transform="translate(295,233)"/>
<path d="M0 0 C0.66 0 1.32 0 2 0 C2 0.66 2 1.32 2 2 C1.34 2 0.68 2 0 2 C0.8604139 6.33229715 0.8604139 6.33229715 3 10 C3.33 9.34 3.66 8.68 4 8 C3.34 8 2.68 8 2 8 C2.33 7.01 2.66 6.02 3 5 C5.475 6.98 5.475 6.98 8 9 C7.67 9.99 7.34 10.98 7 12 C4.69 12.33 2.38 12.66 0 13 C-1.5625 11.375 -1.5625 11.375 -3 9 C-2.76261647 5.12273569 -2.17282078 3.25923117 0 0 Z " fill="#1E8088" transform="translate(164,201)"/>
<path d="M0 0 C0.66 0 1.32 0 2 0 C0.32893194 5.19887841 -2.10999734 6.93895463 -6.6015625 9.7734375 C-9.84295419 11.43108732 -12.38379944 11.84611913 -16 12 C-15 9 -15 9 -12.3828125 7.5 C-11.30773437 7.005 -10.23265625 6.51 -9.125 6 C-5.47060112 4.30929016 -2.75964071 2.91584678 0 0 Z " fill="#141219" transform="translate(316,253)"/>
<path d="M0 0 C0.66 0.66 1.32 1.32 2 2 C1.63879139 5.49168322 0.02191822 8.18375676 -2 11 C-5.70698541 13.90547505 -8.34245939 14.32494469 -13 14 C-9.72863248 10.53036778 -6.49449234 7.84762671 -2.453125 5.30859375 C-0.63056617 3.66731093 -0.38267447 2.38164505 0 0 Z " fill="#4B3E26" transform="translate(335,335)"/>
<path d="M0 0 C1.4606285 2.64738916 2 3.89448334 2 7 C2.66 7 3.32 7 4 7 C4.33 8.32 4.66 9.64 5 11 C7.64 11 10.28 11 13 11 C13 11.66 13 12.32 13 13 C14.98 12.34 16.96 11.68 19 11 C17 14 17 14 13.25 14.875 C9.06150753 15.23987775 6.50252896 14.44362485 3 12 C-0.24708889 8.10349334 -0.29216602 4.96682232 0 0 Z " fill="#1A7783" transform="translate(213,237)"/>
<path d="M0 0 C1 2 1 2 0.0625 5.125 C-0.288125 6.07375 -0.63875 7.0225 -1 8 C-6.75 8.125 -6.75 8.125 -9 7 C-8.25675659 4.60510457 -7.52942646 3.29222384 -5.30859375 2.06640625 C-3.55926499 1.32780077 -1.78065851 0.65950315 0 0 Z " fill="#0C0A0F" transform="translate(253,266)"/>
<path d="M0 0 C0.99 0 1.98 0 3 0 C4.07525194 2.65228812 5.09456151 5.28368454 6 8 C4.6875 9.5 4.6875 9.5 3 11 C2.01 11 1.02 11 0 11 C-0.33 10.01 -0.66 9.02 -1 8 C-1.66 7.34 -2.32 6.68 -3 6 C-2.01 6 -1.02 6 0 6 C0 4.02 0 2.04 0 0 Z " fill="#1E7985" transform="translate(199,202)"/>
<path d="M0 0 C1.98 0.66 3.96 1.32 6 2 C5.01 2.33 4.02 2.66 3 3 C-0.0109362 5.0072908 -0.63016497 5.83884224 -2 9 C-2.66 9 -3.32 9 -4 9 C-4.04898437 10.07121094 -4.09796875 11.14242188 -4.1484375 12.24609375 C-4.22345294 13.64325639 -4.2990013 15.0403905 -4.375 16.4375 C-4.4059375 17.14455078 -4.436875 17.85160156 -4.46875 18.58007812 C-4.57280629 20.39239188 -4.77919892 22.19817988 -5 24 C-5.66 24.33 -6.32 24.66 -7 25 C-7.31586134 16.27871753 -6.9100409 9.86327331 -1 3 C-0.67 2.01 -0.34 1.02 0 0 Z " fill="#2D6E7F" transform="translate(264,324)"/>
<path d="M0 0 C0 0.33 0 0.66 0 1 C-1.98 1 -3.96 1 -6 1 C-6 2.65 -6 4.3 -6 6 C-6.99 6 -7.98 6 -9 6 C-8.67 5.34 -8.34 4.68 -8 4 C-10.31 4.33 -12.62 4.66 -15 5 C-15 4.34 -15 3.68 -15 3 C-14.34 3 -13.68 3 -13 3 C-13 2.34 -13 1.68 -13 1 C-11.39796533 0.63631108 -9.79325797 0.28438048 -8.1875 -0.0625 C-7.29417969 -0.25972656 -6.40085937 -0.45695312 -5.48046875 -0.66015625 C-3 -1 -3 -1 0 0 Z " fill="#107E8D" transform="translate(296,322)"/>
<path d="M0 0 C4.95 0.33 9.9 0.66 15 1 C15 1.33 15 1.66 15 2 C13.65808594 2.11214844 13.65808594 2.11214844 12.2890625 2.2265625 C3.79330607 3.15040808 -2.0833097 4.99932804 -9 10 C-9.99 10.66 -10.98 11.32 -12 12 C-10.54742261 8.33283741 -8.76538946 6.91553575 -5.4375 4.875 C-2.12890878 2.98528237 -2.12890878 2.98528237 0 0 Z " fill="#716F76" transform="translate(272,253)"/>
<path d="M0 0 C1.8871875 0.0309375 1.8871875 0.0309375 3.8125 0.0625 C1.8325 1.0525 1.8325 1.0525 -0.1875 2.0625 C-0.1875 3.0525 -0.1875 4.0425 -0.1875 5.0625 C-3.14414519 6.5408226 -5.92979737 6.12282783 -9.1875 6.0625 C-9.1875 5.0725 -9.1875 4.0825 -9.1875 3.0625 C-8.1975 3.0625 -7.2075 3.0625 -6.1875 3.0625 C-6.5175 2.4025 -6.8475 1.7425 -7.1875 1.0625 C-4.43671116 0.14557039 -2.82801087 -0.04636083 0 0 Z " fill="#4E4750" transform="translate(262.1875,312.9375)"/>
<path d="M0 0 C-0.33 2.31 -0.66 4.62 -1 7 C-2.32 7 -3.64 7 -5 7 C-5 5.68 -5 4.36 -5 3 C-6.65 3 -8.3 3 -10 3 C-10 2.34 -10 1.68 -10 1 C-6.61981469 -0.04005702 -3.5219721 -0.08004482 0 0 Z " fill="#17727E" transform="translate(253,354)"/>
<path d="M0 0 C2.97 0.33 5.94 0.66 9 1 C8.01 2.485 8.01 2.485 7 4 C5.00116131 4.34022786 3.00109278 4.67329097 1 5 C-0.66710346 6.49985609 -0.66710346 6.49985609 -2 8 C-2.99 8 -3.98 8 -5 8 C-5 7.34 -5 6.68 -5 6 C-4.34 6 -3.68 6 -3 6 C-2.690625 5.38125 -2.38125 4.7625 -2.0625 4.125 C-1.375 2.75 -0.6875 1.375 0 0 Z " fill="#43594D" transform="translate(320,315)"/>
<path d="M0 0 C0 0.33 0 0.66 0 1 C-1.546875 1.4021875 -1.546875 1.4021875 -3.125 1.8125 C-6.65180496 2.806873 -9.73735478 4.33073966 -13 6 C-13.66 6 -14.32 6 -15 6 C-15.33 4.02 -15.66 2.04 -16 0 C-15.01 0.495 -15.01 0.495 -14 1 C-12.9790625 0.505 -12.9790625 0.505 -11.9375 0 C-7.80011671 -1.40847091 -4.25062366 -0.68528573 0 0 Z " fill="#167A91" transform="translate(275,353)"/>
<path d="M0 0 C-0.33 1.32 -0.66 2.64 -1 4 C-1.9075 4.0825 -2.815 4.165 -3.75 4.25 C-7.40077839 5.09248732 -8.63384583 6.17881618 -11 9 C-11.3125 6.75 -11.3125 6.75 -11 4 C-7.52419392 0.21750515 -5.05426729 -0.4701644 0 0 Z " fill="#5B5860" transform="translate(250,290)"/>
<path d="M0 0 C6.40882917 -0.48368522 6.40882917 -0.48368522 9.0625 1.6875 C10 4 10 4 9.1875 6.75 C8.795625 7.4925 8.40375 8.235 8 9 C7.67 8.01 7.34 7.02 7 6 C4.69 6 2.38 6 0 6 C0.66 4.68 1.32 3.36 2 2 C1.34 1.34 0.68 0.68 0 0 Z " fill="#706A76" transform="translate(309,243)"/>
<path d="M0 0 C0.66 0 1.32 0 2 0 C1.67 4.95 1.34 9.9 1 15 C0.01 14.67 -0.98 14.34 -2 14 C-2 10.37 -2 6.74 -2 3 C-1.34 3 -0.68 3 0 3 C0 2.01 0 1.02 0 0 Z " fill="#18151E" transform="translate(218,275)"/>
<path d="M0 0 C0.33 0.66 0.66 1.32 1 2 C1.66 2 2.32 2 3 2 C2.67 3.32 2.34 4.64 2 6 C-0.31 6 -2.62 6 -5 6 C-5.33 5.34 -5.66 4.68 -6 4 C-5.67 3.01 -5.34 2.02 -5 1 C-3.35 0.67 -1.7 0.34 0 0 Z " fill="#128190" transform="translate(248,345)"/>
<path d="M0 0 C2.53554006 1.13237712 4.66136988 2.47273135 7 4 C7 4.66 7 5.32 7 6 C2.125 4.125 2.125 4.125 1 3 C-4.53550307 2.51676931 -4.53550307 2.51676931 -9.5 4.5 C-9.995 4.995 -10.49 5.49 -11 6 C-10.6875 4.125 -10.6875 4.125 -10 2 C-6.22786948 -0.51475368 -4.47964158 -0.44796416 0 0 Z " fill="#78767C" transform="translate(228,268)"/>
<path d="M0 0 C0.33 0.99 0.66 1.98 1 3 C3.00016466 4.20882096 3.00016466 4.20882096 5 5 C5 5.66 5 6.32 5 7 C6.65 7.33 8.3 7.66 10 8 C8 10 8 10 5.6875 10.0625 C1.73054099 8.49812085 0.17153511 5.5391402 -2 2 C-1.34 1.34 -0.68 0.68 0 0 Z " fill="#464349" transform="translate(236,272)"/>
<path d="M0 0 C1.32 0.33 2.64 0.66 4 1 C3.47731534 3.76276177 2.89130413 6.3260876 2 9 C1.01 8.67 0.02 8.34 -1 8 C-1.33 6.02 -1.66 4.04 -2 2 C-1.34 2 -0.68 2 0 2 C0 1.34 0 0.68 0 0 Z " fill="#3D3D42" transform="translate(275,261)"/>
<path d="M0 0 C2.18538227 1.53502781 4.0327602 3.17670458 6 5 C5.67 5.66 5.34 6.32 5 7 C4.608125 6.525625 4.21625 6.05125 3.8125 5.5625 C1.59191626 3.64820367 -0.13375709 3.38733012 -3 3 C-3.33 3.66 -3.66 4.32 -4 5 C-4.33 3.68 -4.66 2.36 -5 1 C-7.97 0.505 -7.97 0.505 -11 0 C-7.04972138 -2.84420061 -4.31496938 -1.71110855 0 0 Z " fill="#1B707B" transform="translate(325,169)"/>
<path d="M0 0 C0.33 1.32 0.66 2.64 1 4 C-5.625 7.125 -5.625 7.125 -9 6 C-7.875 3.5625 -7.875 3.5625 -6 1 C-2.8125 0.1875 -2.8125 0.1875 0 0 Z " fill="#59525C" transform="translate(260,318)"/>
<path d="M0 0 C3.26718165 2.20534761 6.00911255 4.57124939 8 8 C7.67 8.99 7.34 9.98 7 11 C3.66666667 7.66666667 0.33333333 4.33333333 -3 1 C-2.01 0.67 -1.02 0.34 0 0 Z " fill="#221F26" transform="translate(232,273)"/>
<path d="M0 0 C0.99 0.66 1.98 1.32 3 2 C1.25 6.875 1.25 6.875 -1 8 C-3.6723621 8.13415472 -6.32250488 8.04318541 -9 8 C-9 7.67 -9 7.34 -9 7 C-7.02 7 -5.04 7 -3 7 C-2.690625 6.030625 -2.38125 5.06125 -2.0625 4.0625 C-1 1 -1 1 0 0 Z " fill="#1B7985" transform="translate(280,232)"/>
<path d="M0 0 C0.99 0.33 1.98 0.66 3 1 C3.73046875 2.84765625 3.73046875 2.84765625 4.1875 5.0625 C4.34605469 5.79597656 4.50460937 6.52945313 4.66796875 7.28515625 C4.83232422 8.13400391 4.83232422 8.13400391 5 9 C4.01 9.33 3.02 9.66 2 10 C2 9.34 2 8.68 2 8 C1.34 8 0.68 8 0 8 C0 7.01 0 6.02 0 5 C-0.66 5 -1.32 5 -2 5 C-1.125 1.125 -1.125 1.125 0 0 Z " fill="#158493" transform="translate(268,227)"/>
<path d="M0 0 C-1.45411765 4.60470588 -1.45411765 4.60470588 -3.8125 6.3125 C-6.31189617 7.09802451 -8.39493282 7.14472595 -11 7 C-10.875 5.125 -10.875 5.125 -10 3 C-7.0625 1.8125 -7.0625 1.8125 -4 1 C-2 0 -2 0 0 0 Z " fill="#434148" transform="translate(300,249)"/>
<path d="M0 0 C3.45835793 0.28819649 4.78380733 0.78965038 7.3125 3.25 C9.12328851 6.2009146 9.38684492 7.61510691 9 11 C8.01 10.67 7.02 10.34 6 10 C5.67 10.99 5.34 11.98 5 13 C5 10 5 7 5 4 C4.071875 3.7834375 4.071875 3.7834375 3.125 3.5625 C1 3 1 3 -1 2 C-0.67 1.34 -0.34 0.68 0 0 Z " fill="#216C77" transform="translate(326,209)"/>
<path d="M0 0 C2.92879371 0.62759865 5.36095629 1.58622659 8 3 C7.67 3.99 7.34 4.98 7 6 C3.9375 7.1875 3.9375 7.1875 1 8 C1 6 1 4 1 2 C0.67 1.34 0.34 0.68 0 0 Z " fill="#151619" transform="translate(298,254)"/>
<path d="M0 0 C2.69027121 -0.2181301 4.46618158 -0.28470316 6.875 1 C8.47614752 3.84648448 8.10471792 6.02688902 7.59375 9.19140625 C7 11 7 11 4.9375 12.5 C4.298125 12.665 3.65875 12.83 3 13 C3.33 12.484375 3.66 11.96875 4 11.4375 C5.32010877 8.21973488 5.13242105 5.4429472 5 2 C3.35 1.67 1.7 1.34 0 1 C0 0.67 0 0.34 0 0 Z " fill="#807B85" transform="translate(314,244)"/>
<path d="M0 0 C5.28 0 10.56 0 16 0 C11.9566353 2.02168235 9.67870655 2.35927761 5.25 2.625 C4.07953125 2.69976562 2.9090625 2.77453125 1.703125 2.8515625 C0.81109375 2.90054688 -0.0809375 2.94953125 -1 3 C-0.67 2.01 -0.34 1.02 0 0 Z " fill="#176D78" transform="translate(183,213)"/>
<path d="M0 0 C0.66 0 1.32 0 2 0 C2.66 0.99 3.32 1.98 4 3 C6.05003955 4.19232613 6.05003955 4.19232613 8 5 C6.06403108 5.22211116 4.12610672 5.42722992 2.1875 5.625 C0.56908203 5.79902344 0.56908203 5.79902344 -1.08203125 5.9765625 C-4 6 -4 6 -7 4 C-6.030625 3.71125 -5.06125 3.4225 -4.0625 3.125 C-0.89335797 2.35785318 -0.89335797 2.35785318 0 0 Z " fill="#106F91" transform="translate(172,210)"/>
<path d="M0 0 C1.32 0 2.64 0 4 0 C2.54054054 4.62162162 2.54054054 4.62162162 0.125 6.3125 C-2 7 -2 7 -6 7 C-5.67 6.01 -5.34 5.02 -5 4 C-3.66666667 3.66666667 -2.33333333 3.33333333 -1 3 C-0.67 2.01 -0.34 1.02 0 0 Z " fill="#147C8E" transform="translate(327,338)"/>
<path d="M0 0 C2.9375 1.3125 2.9375 1.3125 3.8125 3.4375 C3.874375 4.365625 3.874375 4.365625 3.9375 5.3125 C3.6075 4.6525 3.2775 3.9925 2.9375 3.3125 C1.6175 3.3125 0.2975 3.3125 -1.0625 3.3125 C-1.3925 4.6325 -1.7225 5.9525 -2.0625 7.3125 C-2.0625 6.3225 -2.0625 5.3325 -2.0625 4.3125 C-2.7225 4.3125 -3.3825 4.3125 -4.0625 4.3125 C-4.3925 2.9925 -4.7225 1.6725 -5.0625 0.3125 C-3.0625 -0.6875 -3.0625 -0.6875 0 0 Z " fill="#1E7C8A" transform="translate(270.0625,326.6875)"/>
<path d="M0 0 C-0.33 1.32 -0.66 2.64 -1 4 C-6.94 4.495 -6.94 4.495 -13 5 C-8.69529996 1.77147497 -5.41141396 0 0 0 Z " fill="#1E6F81" transform="translate(296,318)"/>
<path d="M0 0 C0.33 0.66 0.66 1.32 1 2 C1.66 2.33 2.32 2.66 3 3 C3.66 3.66 4.32 4.32 5 5 C5 4.34 5 3.68 5 3 C6.32 3.66 7.64 4.32 9 5 C8.01 6.485 8.01 6.485 7 8 C4.03 7.01 1.06 6.02 -2 5 C-1.34 3.35 -0.68 1.7 0 0 Z " fill="#0A8AA3" transform="translate(217,239)"/>
<path d="M0 0 C0 0.66 0 1.32 0 2 C-0.99 2.33 -1.98 2.66 -3 3 C-2.01 3.33 -1.02 3.66 0 4 C0 4.66 0 5.32 0 6 C-1.98 6.99 -3.96 7.98 -6 9 C-6.33 7.68 -6.66 6.36 -7 5 C-6.34 5 -5.68 5 -5 5 C-5 3.68 -5 2.36 -5 1 C-2 0 -2 0 0 0 Z " fill="#0F6B78" transform="translate(312,167)"/>
<path d="M0 0 C1.7074998 1.28062485 3.37373596 2.61767557 5 4 C5 4.66 5 5.32 5 6 C8.3 5.67 11.6 5.34 15 5 C10.72076717 7.13961641 8.68828152 7.41859656 4 7 C1.5625 5.75 1.5625 5.75 0 4 C0 2.68 0 1.36 0 0 Z " fill="#246466" transform="translate(235,356)"/>
<path d="M0 0 C0.33 1.32 0.66 2.64 1 4 C1.66 3.67 2.32 3.34 3 3 C2.67 4.98 2.34 6.96 2 9 C0.68 9 -0.64 9 -2 9 C-2 6.36 -2 3.72 -2 1 C-1.34 0.67 -0.68 0.34 0 0 Z " fill="#396F71" transform="translate(314,321)"/>
<path d="M0 0 C-1.875 4.875 -1.875 4.875 -3 6 C-5.33297433 6.04092937 -7.66705225 6.04241723 -10 6 C-10 5.34 -10 4.68 -10 4 C-8.68 4 -7.36 4 -6 4 C-6 3.34 -6 2.68 -6 2 C-2.25 0 -2.25 0 0 0 Z " fill="#6C6672" transform="translate(260,322)"/>
<path d="M0 0 C0.66 1.32 1.32 2.64 2 4 C2.99 4 3.98 4 5 4 C4.375 6.4375 4.375 6.4375 3 9 C-0.125 9.8125 -0.125 9.8125 -3 10 C-2.01 6.7 -1.02 3.4 0 0 Z " fill="#11747D" transform="translate(244,196)"/>
<path d="M0 0 C-1.125 1.9375 -1.125 1.9375 -3 4 C-6.1875 4.75 -6.1875 4.75 -9 5 C-9.33 4.34 -9.66 3.68 -10 3 C-7.29536552 -0.8183075 -4.37912428 -0.24787496 0 0 Z " fill="#176F8C" transform="translate(211,178)"/>
<path d="M0 0 C2 1 2 1 3.1875 4.1875 C3.99163947 7.96076983 3.90372567 10.29472477 3 14 C2.34 14 1.68 14 1 14 C0.67 9.38 0.34 4.76 0 0 Z " fill="#23787C" transform="translate(275,333)"/>
<path d="M0 0 C0 0.99 0 1.98 0 3 C-4.455 4.485 -4.455 4.485 -9 6 C-8.67 5.01 -8.34 4.02 -8 3 C-8.33 2.67 -8.66 2.34 -9 2 C-5.86501708 0.14223235 -3.62528568 -0.20140476 0 0 Z " fill="#18181C" transform="translate(250,286)"/>
<path d="M0 0 C-0.33 0.99 -0.66 1.98 -1 3 C-1.66 3 -2.32 3 -3 3 C-3 3.66 -3 4.32 -3 5 C-4.65 4.67 -6.3 4.34 -8 4 C-8.33 3.01 -8.66 2.02 -9 1 C-5.92677456 0.08941469 -3.19902639 -0.08886184 0 0 Z " fill="#3B3138" transform="translate(309,251)"/>
<path d="M0 0 C-8.261959 4.40774487 -8.261959 4.40774487 -13 5 C-13 4.01 -13 3.02 -13 2 C-11.5882217 1.46605821 -10.17029756 0.94834896 -8.75 0.4375 C-7.96109375 0.14746094 -7.1721875 -0.14257812 -6.359375 -0.44140625 C-3.80896548 -1.04522837 -2.44677771 -0.8473932 0 0 Z " fill="#176770" transform="translate(249,228)"/>
<path d="M0 0 C2.39763185 2.39763185 2.34280586 3.33273498 2.625 6.625 C2.69976562 7.44226563 2.77453125 8.25953125 2.8515625 9.1015625 C2.90054687 9.72804688 2.94953125 10.35453125 3 11 C2.01 11.33 1.02 11.66 0 12 C0 8.04 0 4.08 0 0 Z " fill="#525443" transform="translate(297,343)"/>
<path d="M0 0 C0 0.66 0 1.32 0 2 C-0.99 2 -1.98 2 -3 2 C-3.33 2.66 -3.66 3.32 -4 4 C-4.99 4.66 -5.98 5.32 -7 6 C-8.32 5.34 -9.64 4.68 -11 4 C-10 2 -10 2 -8.22265625 1.3671875 C-7.50980469 1.20476562 -6.79695313 1.04234375 -6.0625 0.875 C-5.35222656 0.70742188 -4.64195312 0.53984375 -3.91015625 0.3671875 C-2 0 -2 0 0 0 Z " fill="#978F99" transform="translate(279,307)"/>
<path d="M0 0 C0.66 0.66 1.32 1.32 2 2 C1.61121812 5.01305957 0.73543126 6.39685311 -1 9 C-3.625 9.1875 -3.625 9.1875 -6 9 C-4.7934375 7.88625 -4.7934375 7.88625 -3.5625 6.75 C-1.23011409 4.24695171 -0.36465606 3.2819045 0 0 Z " fill="#424E3C" transform="translate(335,335)"/>
<path d="M0 0 C3.76159981 0.52244442 6.32191002 1.2227215 9 4 C9.25 6.6875 9.25 6.6875 9 9 C8.01 9.33 7.02 9.66 6 10 C6 8.35 6 6.7 6 5 C4.02 4.01 2.04 3.02 0 2 C0 1.34 0 0.68 0 0 Z " fill="#2E7579" transform="translate(326,330)"/>
<path d="M0 0 C0.33 0 0.66 0 1 0 C1.66 2.97 2.32 5.94 3 9 C0.03 8.505 0.03 8.505 -3 8 C-2.67 6.02 -2.34 4.04 -2 2 C-1.34 2 -0.68 2 0 2 C0 1.34 0 0.68 0 0 Z " fill="#928892" transform="translate(239,306)"/>
<path d="M0 0 C1.4606285 2.64738916 2 3.89448334 2 7 C2.66 7 3.32 7 4 7 C4.103125 7.598125 4.20625 8.19625 4.3125 8.8125 C5.08876455 11.28243264 6.07088921 12.32251235 8 14 C4.90108642 13.07870137 3.27211886 12.32841931 1.1875 9.8125 C-0.26040295 6.38325617 -0.2168384 3.68625273 0 0 Z " fill="#277580" transform="translate(213,237)"/>
<path d="M0 0 C-1.32 0.33 -2.64 0.66 -4 1 C-4 1.66 -4 2.32 -4 3 C-6.97 3.66 -9.94 4.32 -13 5 C-9.25316241 0.83684713 -5.67827303 -2.10306409 0 0 Z " fill="#277984" transform="translate(174,225)"/>
<path d="M0 0 C2.31 0 4.62 0 7 0 C6.34 1.32 5.68 2.64 5 4 C1.37 4 -2.26 4 -6 4 C-6 3.67 -6 3.34 -6 3 C-5.195625 2.87625 -4.39125 2.7525 -3.5625 2.625 C-2.716875 2.41875 -1.87125 2.2125 -1 2 C-0.67 1.34 -0.34 0.68 0 0 Z " fill="#1B7C88" transform="translate(177,212)"/>
<path d="M0 0 C1.32 0.33 2.64 0.66 4 1 C3.67 1.99 3.34 2.98 3 4 C0.36 4.33 -2.28 4.66 -5 5 C-4.67 4.01 -4.34 3.02 -4 2 C-2.68 2 -1.36 2 0 2 C0 1.34 0 0.68 0 0 Z " fill="#8A828C" transform="translate(279,307)"/>
<path d="M0 0 C0.33 0.99 0.66 1.98 1 3 C-2.44450737 5.29633824 -4.93812283 5.54016485 -9 6 C-9 5.34 -9 4.68 -9 4 C-6.03 2.68 -3.06 1.36 0 0 Z " fill="#7C757F" transform="translate(276,279)"/>
<path d="M0 0 C0.99 0.33 1.98 0.66 3 1 C2.01 1.495 2.01 1.495 1 2 C1.309375 3.175625 1.309375 3.175625 1.625 4.375 C1.74875 5.24125 1.8725 6.1075 2 7 C1.34 7.66 0.68 8.32 0 9 C-0.99 8.34 -1.98 7.68 -3 7 C-3 6.01 -3 5.02 -3 4 C-2.34 4 -1.68 4 -1 4 C-0.67 2.68 -0.34 1.36 0 0 Z " fill="#69676E" transform="translate(217,290)"/>
<path d="M0 0 C0.66 0.33 1.32 0.66 2 1 C2 2.98 2 4.96 2 7 C-0.60582371 7.93065133 -1.64198224 8.14917407 -4.25 7.0625 C-4.8275 6.711875 -5.405 6.36125 -6 6 C-4.68 6 -3.36 6 -2 6 C-1.34 4.02 -0.68 2.04 0 0 Z " fill="#2D2C32" transform="translate(252,283)"/>
<path d="M0 0 C0.66 0.33 1.32 0.66 2 1 C-3.445 4.96 -3.445 4.96 -9 9 C-9.33 8.01 -9.66 7.02 -10 6 C-8.70903219 5.18639005 -7.41720125 4.37414954 -6.125 3.5625 C-5.04605469 2.88380859 -5.04605469 2.88380859 -3.9453125 2.19140625 C-2 1 -2 1 0 0 Z " fill="#2A272F" transform="translate(270,254)"/>
<path d="M0 0 C2.80908387 4.2136258 2.69707949 8.04749342 2 13 C0 15.625 0 15.625 -2 17 C-2.66 16.67 -3.32 16.34 -4 16 C-3.34515625 15.46890625 -2.6903125 14.9378125 -2.015625 14.390625 C0.575779 11.31709933 0.42204801 9.70710413 0.25 5.75 C0.21390625 4.67234375 0.1778125 3.5946875 0.140625 2.484375 C0.09421875 1.66453125 0.0478125 0.8446875 0 0 Z " fill="#21767F" transform="translate(332,177)"/>
<path d="M0 0 C0.66 0.33 1.32 0.66 2 1 C2 1.66 2 2.32 2 3 C-2.82841331 7.10415132 -5.94859592 7.41733821 -12 7 C-11.67 6.34 -11.34 5.68 -11 5 C-10.278125 5.061875 -9.55625 5.12375 -8.8125 5.1875 C-5.43294706 4.96219647 -3.72258907 3.96631433 -1 2 C-0.67 1.34 -0.34 0.68 0 0 Z " fill="#666269" transform="translate(235,283)"/>
<path d="M0 0 C5.39449293 -0.27429625 8.51925805 -0.36055646 13 3 C12.01 3.33 11.02 3.66 10 4 C9.67 3.67 9.34 3.34 9 3 C6.9412232 2.72046781 4.88271568 2.55265649 2.8125 2.37890625 C1.9153125 2.19134766 1.9153125 2.19134766 1 2 C0.67 1.34 0.34 0.68 0 0 Z " fill="#26747D" transform="translate(199,221)"/>
<path d="M0 0 C1.32 0.66 2.64 1.32 4 2 C3.6875 3.9375 3.6875 3.9375 3 6 C2.01 6.33 1.02 6.66 0 7 C-0.38133299 5.0085944 -0.71325582 3.00720923 -1 1 C-0.67 0.67 -0.34 0.34 0 0 Z " fill="#0E708F" transform="translate(325,188)"/>
<path d="M0 0 C0.66 0 1.32 0 2 0 C1.34 2.64 0.68 5.28 0 8 C-1.32 7.67 -2.64 7.34 -4 7 C-2.68 4.69 -1.36 2.38 0 0 Z " fill="#26242B" transform="translate(234,289)"/>
<path d="M0 0 C0 0.99 0 1.98 0 3 C1.84188612 5.05270463 1.84188612 5.05270463 4 6 C-0.455 7.485 -0.455 7.485 -5 9 C-1.125 1.125 -1.125 1.125 0 0 Z " fill="#68686D" transform="translate(287,261)"/>
<path d="M0 0 C4.95 0.33 9.9 0.66 15 1 C15 1.33 15 1.66 15 2 C7.08 2.495 7.08 2.495 -1 3 C-0.67 2.01 -0.34 1.02 0 0 Z " fill="#6B676E" transform="translate(272,253)"/>
<path d="M0 0 C0.33 0 0.66 0 1 0 C1.05416188 1.60379341 1.09286638 3.20811406 1.125 4.8125 C1.14820313 5.70582031 1.17140625 6.59914062 1.1953125 7.51953125 C1 10 1 10 -1 13 C-1.2236337 11.58566794 -1.42826476 10.16832382 -1.625 8.75 C-1.74101562 7.96109375 -1.85703125 7.1721875 -1.9765625 6.359375 C-2.00319395 3.67847541 -1.36592084 2.27305911 0 0 Z " fill="#086D72" transform="translate(235,233)"/>
<path d="M0 0 C0.66 0 1.32 0 2 0 C1.38461538 6.52307692 1.38461538 6.52307692 -0.5625 8.9375 C-1.036875 9.288125 -1.51125 9.63875 -2 10 C-2.1953125 3.9453125 -2.1953125 3.9453125 -2 2 C-1.34 1.34 -0.68 0.68 0 0 Z " fill="#19738B" transform="translate(332,219)"/>
<path d="M0 0 C0.99 0.99 1.98 1.98 3 3 C2.85546875 5.69921875 2.85546875 5.69921875 2.1875 8.6875 C1.97480469 9.68136719 1.76210938 10.67523438 1.54296875 11.69921875 C1.36378906 12.45847656 1.18460937 13.21773437 1 14 C0.67 14 0.34 14 0 14 C0 9.38 0 4.76 0 0 Z " fill="#0B717C" transform="translate(285,189)"/>
<path d="M0 0 C0.99 0 1.98 0 3 0 C2.25 3.375 2.25 3.375 1 7 C-0.98 7.99 -0.98 7.99 -3 9 C-2.01 6.03 -1.02 3.06 0 0 Z " fill="#196A73" transform="translate(291,182)"/>
<path d="M0 0 C-1.75 2.0625 -1.75 2.0625 -4 4 C-6.25 3.75 -6.25 3.75 -8 3 C-8 2.34 -8 1.68 -8 1 C-5.29120665 -0.35439668 -2.99066732 -0.06501451 0 0 Z " fill="#0B0508" transform="translate(314,253)"/>
<path d="M0 0 C1.98 0.66 3.96 1.32 6 2 C5 4 5 4 2 6 C-0.6875 5.625 -0.6875 5.625 -3 5 C-2.01 4.34 -1.02 3.68 0 3 C0 2.01 0 1.02 0 0 Z " fill="#786F7A" transform="translate(299,248)"/>
<path d="M0 0 C0.66 0 1.32 0 2 0 C1.88590407 1.45922693 1.75834456 2.91740598 1.625 4.375 C1.55539062 5.18710938 1.48578125 5.99921875 1.4140625 6.8359375 C1 9 1 9 -1 11 C-2.26264601 6.70700357 -1.62950412 4.12168689 0 0 Z " fill="#166B73" transform="translate(284,221)"/>
<path d="M0 0 C0.33 1.32 0.66 2.64 1 4 C-0.32 4 -1.64 4 -3 4 C-5 2 -5 2 -6 0 C-3.50907189 -1.24546405 -2.58919267 -0.7767578 0 0 Z " fill="#127798" transform="translate(332,213)"/>
<path d="M0 0 C3 2 3 2 3.875 4.4375 C3.91625 5.283125 3.9575 6.12875 4 7 C3.01 7.99 2.02 8.98 1 10 C0.67 6.7 0.34 3.4 0 0 Z " fill="#0D8EA8" transform="translate(307,203)"/>
<path d="M0 0 C1.485 0.99 1.485 0.99 3 2 C3.1875 5.625 3.1875 5.625 3 9 C2.01 9 1.02 9 0 9 C-0.84454356 5.62182575 -1.10844919 3.32534757 0 0 Z " fill="#208596" transform="translate(309,199)"/>
<path d="M0 0 C2.1519437 3.22791555 2.20086443 4.28400809 2 8 C1.34 7.34 0.68 6.68 0 6 C-0.99 6.33 -1.98 6.66 -3 7 C-2.25 2.25 -2.25 2.25 0 0 Z " fill="#1B7E92" transform="translate(211,172)"/>
<path d="M0 0 C2.97 0.33 5.94 0.66 9 1 C9 1.33 9 1.66 9 2 C1.57142857 4.14285714 1.57142857 4.14285714 -2 5 C-1.34 3.35 -0.68 1.7 0 0 Z " fill="#246E78" transform="translate(266,352)"/>
<path d="M0 0 C2.31 0.33 4.62 0.66 7 1 C6.01 2.485 6.01 2.485 5 4 C1.375 4.1875 1.375 4.1875 -2 4 C-1.34 2.68 -0.68 1.36 0 0 Z " fill="#2B4845" transform="translate(322,315)"/>
<path d="M0 0 C2.31 0.33 4.62 0.66 7 1 C6.67 1.66 6.34 2.32 6 3 C3.36 3 0.72 3 -2 3 C-1.34 2.01 -0.68 1.02 0 0 Z " fill="#0C0B10" transform="translate(245,282)"/>
<path d="M0 0 C4.03520597 1.58962659 8.01811282 3.28232318 12 5 C12 5.66 12 6.32 12 7 C6.47371099 5.80805531 3.82180842 4.4008703 0 0 Z " fill="#287880" transform="translate(295,233)"/>
<path d="M0 0 C0 4.38968456 -2.12805101 5.76905739 -5 9 C-5.66 8.67 -6.32 8.34 -7 8 C-6.67 6.68 -6.34 5.36 -6 4 C-4.68 4 -3.36 4 -2 4 C-1.34 2.68 -0.68 1.36 0 0 Z " fill="#20737B" transform="translate(261,214)"/>
<path d="M0 0 C2.64 0 5.28 0 8 0 C7.67 0.99 7.34 1.98 7 3 C4.69 3 2.38 3 0 3 C0 2.01 0 1.02 0 0 Z " fill="#231D25" transform="translate(253,316)"/>
<path d="M0 0 C0 0.66 0 1.32 0 2 C-0.639375 2.103125 -1.27875 2.20625 -1.9375 2.3125 C-2.618125 2.539375 -3.29875 2.76625 -4 3 C-4.33 3.99 -4.66 4.98 -5 6 C-5.99 6.33 -6.98 6.66 -8 7 C-7.08529012 1.6946827 -5.46561428 0 0 0 Z " fill="#6C6970" transform="translate(227,273)"/>
<path d="M0 0 C2.475 0.495 2.475 0.495 5 1 C4.67 1.99 4.34 2.98 4 4 C4.66 4 5.32 4 6 4 C6 4.99 6 5.98 6 7 C5.34 7 4.68 7 4 7 C0 2.52941176 0 2.52941176 0 0 Z " fill="#1D7989" transform="translate(289,226)"/>
<path d="M0 0 C1.65 0 3.3 0 5 0 C8.07692308 5.41538462 8.07692308 5.41538462 7.6875 8.375 C7.460625 8.91125 7.23375 9.4475 7 10 C6.38125 8.63875 6.38125 8.63875 5.75 7.25 C4.10949282 4.20334382 2.55281639 2.28873194 0 0 Z " fill="#20727B" transform="translate(237,185)"/>
<path d="M0 0 C1.98 0.495 1.98 0.495 4 1 C3.67 2.65 3.34 4.3 3 6 C1.68 5.67 0.36 5.34 -1 5 C-0.67 3.35 -0.34 1.7 0 0 Z " fill="#0D7780" transform="translate(167,175)"/>
<path d="M0 0 C2.51083114 1.25541557 2.87125446 2.50063488 4 5 C2.35 5.66 0.7 6.32 -1 7 C-0.67 4.69 -0.34 2.38 0 0 Z " fill="#2B6A71" transform="translate(253,354)"/>
<path d="M0 0 C0.99 0 1.98 0 3 0 C4.35439668 2.70879335 4.06501451 5.00933268 4 8 C2 6.25 2 6.25 0 4 C0 2.68 0 1.36 0 0 Z " fill="#857F88" transform="translate(262,315)"/>
<path d="M0 0 C-0.33 0.99 -0.66 1.98 -1 3 C-3.64 3.33 -6.28 3.66 -9 4 C-3.7826087 0 -3.7826087 0 0 0 Z " fill="#857C89" transform="translate(259,288)"/>
<path d="M0 0 C0.625 1.875 0.625 1.875 1 4 C0.34 4.66 -0.32 5.32 -1 6 C-1.66 5.67 -2.32 5.34 -3 5 C-3 5.99 -3 6.98 -3 8 C-3.66 8 -4.32 8 -5 8 C-3.8141763 4.62496331 -2.72426311 2.35277269 0 0 Z " fill="#211E26" transform="translate(221,270)"/>
<path d="M0 0 C4.92307692 4.30769231 4.92307692 4.30769231 5.3125 7.8125 C5.209375 8.534375 5.10625 9.25625 5 10 C4.67 8.68 4.34 7.36 4 6 C3.34 6 2.68 6 2 6 C2 5.34 2 4.68 2 4 C1.34 4 0.68 4 0 4 C0 2.68 0 1.36 0 0 Z " fill="#1E637C" transform="translate(201,197)"/>
<path d="M0 0 C0.66 0 1.32 0 2 0 C2.66 1.32 3.32 2.64 4 4 C4.66 4 5.32 4 6 4 C6 4.66 6 5.32 6 6 C4.35 6 2.7 6 1 6 C0.67 4.02 0.34 2.04 0 0 Z " fill="#1E666F" transform="translate(290,348)"/>
<path d="M0 0 C1.32 1.65 2.64 3.3 4 5 C3.34 5 2.68 5 2 5 C1.67 5.66 1.34 6.32 1 7 C0.01 5.35 -0.98 3.7 -2 2 C-1.34 1.34 -0.68 0.68 0 0 Z " fill="#1C1920" transform="translate(240,301)"/>
<path d="M0 0 C0.66 0.33 1.32 0.66 2 1 C2 2.65 2 4.3 2 6 C0.68 6 -0.64 6 -2 6 C-1.49396008 3.83125748 -1.00016187 2.00032373 0 0 Z " fill="#15191C" transform="translate(270,264)"/>
<path d="M0 0 C1.33333333 0 2.66666667 0 4 0 C4 1.98 4 3.96 4 6 C3.01 6.495 3.01 6.495 2 7 C1.67 6.01 1.34 5.02 1 4 C0.34 3.67 -0.32 3.34 -1 3 C-0.67 2.01 -0.34 1.02 0 0 Z " fill="#565058" transform="translate(256,261)"/>
<path d="M0 0 C0.66 0 1.32 0 2 0 C1.01 2.97 0.02 5.94 -1 9 C-1.33 9 -1.66 9 -2 9 C-2 7.02 -2 5.04 -2 3 C-1.34 3 -0.68 3 0 3 C0 2.01 0 1.02 0 0 Z " fill="#0D0A12" transform="translate(218,275)"/>
<path d="M0 0 C1.875 0.3125 1.875 0.3125 4 1 C6 4 6 4 5.625 6.1875 C5.41875 6.785625 5.2125 7.38375 5 8 C4.67 7.01 4.34 6.02 4 5 C3.01 4.67 2.02 4.34 1 4 C0.3125 1.9375 0.3125 1.9375 0 0 Z " fill="#1C767F" transform="translate(278,170)"/>
<path d="" fill="#808080" transform="translate(0,0)"/>
<path d="" fill="#405540" transform="translate(0,0)"/>
<path d="" fill="#000000" transform="translate(0,0)"/>
</svg>
